 <svg
      xmlns="http://www.w3.org/2000/svg"
      width="786"
      height="530"
      fill="none"
      viewBox="0 0 786 530"
    >
      <path
        fill="#fff"
        d="M121.857 108.474c0 7.41 4.118 13.869 10.136 17.198a17.4 17.4 0 003.167 1.386c7.72-8.876 16.035-17.237 24.863-24.924a22.273 22.273 0 00-1.623-3.566c-3.405-5.825-9.739-9.748-16.945-9.748-10.848.04-19.598 8.836-19.598 19.654zM87.373 135.459c-6.975 0-12.63-5.66-12.63-12.641s5.655-12.64 12.63-12.64c6.975 0 12.63 5.659 12.63 12.64 0 6.981-5.655 12.641-12.63 12.641z"
        opacity="0.2"
      ></path>
      <path
        fill="#0EA5E9"
        d="M620.27 137.433l51.937 23.821-.495 1.081-51.937-23.821.495-1.081zM618.338 141.83l51.937 23.821-.494 1.081-51.938-23.821.495-1.081z"
      ></path>
      <path
        fill="#0EA5E9"
        d="M670.591 161.901l1.185.068-3.232 57.088-1.186-.067 3.233-57.089zM675.421 162.1l1.185.067-3.232 57.089-1.185-.068 3.232-57.088zM670.363 221.54l9.766 14.676-.989.659-9.765-14.676.988-.659zM674.356 218.844l9.766 14.677-.988.658-9.766-14.676.988-.659z"
      ></path>
      <path
        fill="#fff"
        d="M73.714 298.835a252.984 252.984 0 019.304-74.972c6.81-24.25 17.301-47.392 30.881-68.393a252.178 252.178 0 0121.261-28.372c7.72-8.876 16.034-17.237 24.863-24.924 1.03-.872 2.059-1.784 3.089-2.655a248.582 248.582 0 0163.069-38.714c45.491-19.258 96.366-24.251 144.113-14.701 23.874 4.834 46.916 13.195 68.137 24.766 21.221 11.57 40.661 26.271 57.448 43.429a243.906 243.906 0 00-58.992-40.458c-21.459-10.421-44.382-17.514-67.781-21.12-46.797-7.132-95.376.119-137.462 20.328a231.918 231.918 0 00-57.486 39.031 229.247 229.247 0 00-33.218 38.239v.039a223.055 223.055 0 00-27.516 43.588 227.026 227.026 0 00-19.796 63.639c-3.444 22.15-3.603 45.014-.396 67.442.792 5.627 1.822 11.214 3.01 16.762 1.227 5.547 2.612 11.055 4.236 16.524 3.246 10.936 7.245 21.675 12.075 32.096a257.322 257.322 0 004.593 9.392c8.868 17.078 19.875 33.166 32.781 47.669.198-.277.436-.555.634-.832l7.404-10.699 1.227-1.783c.554.594 1.108 1.228 1.702 1.823h321.009c3.088-3.369.514 2.575 3.365-.951.04 0 1.663 1.03 1.702 1.03l3.366 1.783 12.788-1.823h23.517c2.494-3.368 4.91-6.855 7.245-10.342 26.25-39.705 41.532-87.295 41.532-138.451 0-138.769-112.4-251.266-251.05-251.266-63.624 0-121.705 23.697-165.968 62.728-9.462 8.361-18.291 17.395-26.408 27.103-36.622 43.668-58.674 99.975-58.674 161.435 0 5.706.198 11.372.554 16.999-.08-1.862-.119-3.646-.158-5.389z"
        opacity="0.1"
      ></path>
      <path
        fill="#fff"
        d="M93.233 325.067c.792 5.626 1.821 11.214 3.009 16.761 1.227 5.548 2.613 11.056 4.236 16.524 3.247 10.937 7.246 21.675 12.076 32.097a258.9 258.9 0 004.592 9.391c8.869 17.078 19.875 33.166 32.782 47.669.198-.277.436-.554.634-.832l8.631-12.482 42.758-3.368c-9.699-10.303-39.195-49.968-46.322-62.41a218.388 218.388 0 01-5.345-9.946 189.094 189.094 0 01-6.532-14.741c-1.703-4.279-3.167-8.638-4.593-13.037a213.94 213.94 0 01-3.642-13.353c-4.197-17.99-5.741-36.694-4.514-55.397 1.228-18.663 5.306-37.327 11.997-55.119s16.113-34.712 27.832-49.967c11.72-15.296 25.814-28.927 41.69-40.26 31.713-22.705 70.83-36.06 110.857-37.287 20.033-.635 40.264 1.743 59.862 7.053 9.819 2.655 19.44 6.063 28.783 10.144 9.383 4.081 18.45 8.876 27.2 14.344-8.235-6.181-16.906-11.808-26.012-16.761-9.106-4.953-18.568-9.273-28.348-12.839-19.558-7.212-40.304-11.53-61.366-12.72-42.126-2.417-85.399 7.965-122.695 29.957-18.647 10.976-35.751 24.845-50.519 40.973a223.278 223.278 0 00-9.383 10.897v.04a222.996 222.996 0 00-27.516 43.588 227.03 227.03 0 00-19.796 63.638 230.504 230.504 0 00-.356 67.443z"
        opacity="0.1"
      ></path>
      <path
        fill="#FCC9BF"
        d="M482.576 355.777s6.652 2.021 12.393 2.298c1.662.079 3.246 0 4.553-.317 1.979-.476 3.88-2.179 5.344-4.161 2.891-3.843 4.158-8.757 1.307-7.727-2.692.991-11.323 4.676-17.381 7.252-2.256.99-4.157 1.783-5.265 2.258-.594.238-.951.397-.951.397z"
      ></path>
      <path
        fill="#E28778"
        d="M483.526 355.341l11.402 2.695c1.663.079 3.247 0 4.553-.317 1.98-.476 3.88-2.18 5.345-4.162l-16.034-.475c-2.257.99-4.158 1.783-5.266 2.259z"
      ></path>
      <path
        fill="#fff"
        d="M720.007 319.599H618.454l-70.908 98.588h101.513l70.948-98.588z"
      ></path>
      <path
        fill="#0EA5E9"
        d="M250.412 145.286l2.731-2.853c1.267-1.308 3.207-1.783 4.949-1.228 1.069.356 1.98 1.07 2.534 1.981l.752 1.228c.555.912.832 1.942.713 3.012l-.515 5.429-5.82-4.359-5.384 2.892v-6.102h.04z"
      ></path>
      <path
        fill="#E5E5E5"
        d="M160.973 299.944c-.237-.792-9.383-10.937-9.383-10.937l-5.661-7.568 4.315-5.231 6.097-2.298 13.343 5.785-8.711 20.249z"
      ></path>
      <path
        fill="#111827"
        d="M166.596 274.901s2.692-13.948-12.432-18.901l-9.423 7.449s5.701 8.955-6.374 5.231c0 0-30.288 25.954-24.666 42.32 5.622 16.325 37.969-21.992 37.969-21.992s-.119-6.42 4.632-10.105c4.672-3.646 8.116.951 10.294-4.002z"
      ></path>
      <path
        fill="#E5E5E5"
        d="M178.394 233.611l6.097-10.976c3.445-3.051 7.839-3.685 12.828-2.774l5.741 11.65-5.702 11.135-18.964-9.035z"
      ></path>
      <path
        fill="#EAB308"
        d="M210.424 342.502s-.515-37.486-27.912-57.378c-27.398-19.892-12.867 47.154-12.867 47.154l40.779 10.224z"
      ></path>
      <path
        fill="#111827"
        d="M366.573 176.947s6.928-20.17 18.529-30.155c0 0-4.751-8.361-1.94-9.788 2.811-1.426 8.789 1.387 11.56 6.697 0 0-.435-14.067 5.939-11.135 6.374 2.932 29.021 16.603 37.533 31.661 0 0 11.561-1.466 11.244 4.676-.356 6.142-8.987 21.199-28.268 23.577-19.242 2.338-56.696 4.121-54.597-15.533z"
      ></path>
      <path
        fill="#16A34A"
        d="M242.691 271.414s-7.205 15.295 22.172 41.963c29.377 26.668 49.449 43.469 49.449 43.469s15.045 18.624 29.219 7.292c14.174-11.333 8.473-28.055 8.473-28.055s-95.416-88.207-109.313-64.669zM302.95 193.114s-10.848-2.496-10.809 22.745c0 25.241 8.394 37.684 8.394 37.684l25.18-12.403c0-.04-4.751-34.553-22.765-48.026z"
      ></path>
      <path
        fill="#EAB308"
        d="M324.368 348.842s-26.764 87.968-58.12 84.917c-31.357-3.051-60.457-21.16-81.757-47.115-21.3-25.994 139.877-37.802 139.877-37.802z"
      ></path>
      <path
        fill="#FCC9BF"
        d="M321.518 346.108s7.601 1.149 11.283-9.074c3.484-9.669-44.62-43.668-49.885-47.353-.317-.198-.475-.317-.475-.317s-.198.238-.515.674c-1.307 1.664-4.751 6.142-8.235 10.461-3.92 4.914-7.879 9.629-8.75 10.105-1.94.99 56.577 35.504 56.577 35.504z"
      ></path>
      <path
        fill="#E28778"
        d="M273.651 300.499c19.598 5.112 59.15 36.535 59.15 36.535 3.484-9.669-44.62-43.668-49.885-47.353-.317.119-.673.238-.99.357-1.307 1.664-4.791 6.142-8.275 10.461z"
      ></path>
      <path
        fill="#FCC9BF"
        d="M262.289 174.094l4.989-10.223c.791-1.625.91-3.488.277-5.191l-1.307-3.686a6.798 6.798 0 00-2.534-3.328c-2.85-1.942-8.116-5.548-9.304-5.825-.554-.119-.91.277-1.227.872-.752 1.624-.356 3.566.911 4.834l4.711 4.715c.673.674.633 1.744-.079 2.338-1.821 1.585-4.87 4.636-5.662 7.846-1.148 4.636.95 11.333.95 11.333l8.275-3.685z"
      ></path>
      <path
        fill="#22C55E"
        d="M242.69 271.414c6.454-9.272 22.686 7.093 68.533 43.905 44.818 35.98 32.861 48.224 32.307 48.779 16.233-10.897 27.239-24.568 34.722-38.516a119.43 119.43 0 006.849-15.216c10.571-28.411 8.592-53.891 8.592-53.891 4.077-39.229-71.622-50.403-71.622-50.403l-1.9 31.621s-4.276 3.368-10.848 7.727c-3.365 2.219-7.285 4.676-11.521 7.053-11.046 6.221-24.191 11.848-34.603 11.214-22.132-1.307-20.509 7.727-20.509 7.727z"
      ></path>
      <path
        fill="#FCC9BF"
        d="M251.322 176.947s7.008 59.002 12.59 61.934c4.316 2.259 34.524 2.338 48.223 2.259 2.692 0 4.79-.04 5.859-.04h.871s.159-.277.357-.792c1.742-4.082 8.472-22.507-7.879-30.75 0 0-4.474 0-10.056.04-7.839.04-17.817.198-20.548.515 0 0-12.274-31.502-18.49-39.071l-10.927 5.905z"
      ></path>
      <path
        fill="#E28778"
        d="M301.326 209.598c6.176 7.727 9.858 26.232 10.848 31.582 2.692 0 4.79-.04 5.859-.04.436-.238.871-.515 1.228-.832 1.742-4.081 8.472-22.507-7.879-30.749 0 0-4.474 0-10.056.039z"
      ></path>
      <path
        fill="#22C55E"
        d="M366.573 208.29s-9.145-6.815-21.854-6.776c-12.709 0-34.88-4.596-41.809-8.4 0 0 19.36 24.251 10.413 54.683-8.948 30.353 67.741-5.468 53.25-39.507z"
      ></path>
      <path
        fill="#FCC9BF"
        d="M406.164 311.634l18.569 16.444 40.7 36.059 3.563-20.288-32.346-41.21-30.486 8.995z"
      ></path>
      <path
        fill="#E28778"
        d="M406.165 311.634l18.568 16.444c9.898-4.993 11.917-25.439 11.917-25.439l-30.485 8.995z"
      ></path>
      <path
        fill="#22C55E"
        d="M373.343 262.498l9.384 46.362c.831.555 1.623 1.11 2.454 1.625 5.424 3.447 10.452 5.706 15.164 7.053 27.714 7.846 42.6-16.88 42.6-16.88-21.221-33.246-53.448-72.039-53.448-72.039l-16.154 33.879z"
      ></path>
      <path
        fill="#FCC9BF"
        d="M472.797 349.595c.396.079 12.59 6.142 12.59 6.142l24.468 1.942 18.885 23.656s-1.742 3.17-6.928.713c-5.187-2.456-14.372-13.036-14.372-13.036l8.393 20.486s-1.069 4.2-3.127 4.478c-2.02.277-11.324-17.079-10.69-16.683.673.397-13.144-7.608-13.144-7.608s-6.85 3.487-10.492 2.1l1.663 6.539s5.503 1.585 5.265 6.736c-.237 5.151-10.333.753-10.333.753s-11.007-5.785-11.878-8.639c-.831-2.813 1.545-14.74 1.545-14.74l.316-16.167 7.839 3.328zM365.741 223.982c9.304 16.802 26.051 10.461 26.051 10.461-.039-1.268.079-2.575.198-3.883 1.03-8.519 5.266-17.078 5.266-17.078l-2.772-5.231-13.777-25.955c0 .04-24.27 24.885-14.966 41.686z"
      ></path>
      <path
        fill="#FCC9BF"
        d="M379.321 189.072s.792-17.515-8.275-16.286c-9.106 1.228-10.61 10.699-10.61 10.699s-1.861 4.477 10.769 13.037c12.669 8.519 8.116-7.45 8.116-7.45z"
      ></path>
      <path
        fill="#E28778"
        d="M392.03 230.56c1.03-8.52 5.266-17.079 5.266-17.079l-2.772-5.23c-3.523-2.933-7.759-5.27-12.431-6.34 0 .039-6.177 21.516 9.937 28.649z"
      ></path>
      <path
        fill="#FCC9BF"
        d="M428.811 185.347s-7.681 15.573-8.077 19.337c-.356 3.765-3.167 22.032-25.616 13.632-22.448-8.401-14.372-32.374-14.372-32.374l19.044-23.895 29.021 23.3z"
      ></path>
      <path
        fill="#16A34A"
        d="M385.142 310.484c5.424 3.448 10.452 5.706 15.163 7.054 5.147-18.585-6.453-52.9-6.453-52.9-3.049 29.6-8.512 45.173-8.512 45.173s-.08.237-.198.673z"
      ></path>
      <path
        fill="#fff"
        d="M297.881 252.552c53.884 30.195 74.591 62.292 80.371 73.07a119.44 119.44 0 006.85-15.216c-23.914-42.519-64.851-60.746-75.699-64.947a197.095 197.095 0 01-11.522 7.093z"
      ></path>
      <path
        fill="#111827"
        d="M428.415 189.072s2.653-2.457-4.791-5.587c-7.443-3.131-19.241-11.65-22.963-18.505 0 0-14.807 25.598-21.102 25.162-6.335-.436.871-11.214.871-11.214l13.421-15.89 7.483-3.091c.04-.039 37.256 20.289 27.081 29.125z"
      ></path>
      <path
        fill="#FBBF24"
        d="M327.694 344.84c2.494 4.398-30.644 27.42-33.376 29.164-30.049 19.06-65.761 26.509-101.037 23.102-17.698-1.704-42.799-2.853-51.271-21.042-14.293-30.63 4.711-61.379 14.332-90.108a1227.556 1227.556 0 0017.341-55.753s32.663 5.746 29.337 16.96c0 0-1.86 5.31-10.452 6.38 0 0 10.215 6.102 4.118 8.994-6.097 2.933-10.492 1.942-10.492 1.942s9.225 51.791 1.742 63.797c0 0 16.153-9.351 24.151 8.956 0 0 9.541-18.387 18.489 1.862 0 0 21.142-26.232 38.166-32.572-.039 0 45.57 14.899 58.952 38.318z"
      ></path>
      <path
        fill="#111827"
        d="M203.02 231.511s13.976-2.536 13.105-18.426l-10.333-6.102s-6.256 8.559-7.206-4.082c0 0-35.157-18.901-48.341-7.726-13.184 11.174 34.246 27.46 34.246 27.46s5.939-2.417 11.086.674c5.107 3.13 2.059 8.004 7.443 8.202z"
      ></path>
      <path
        fill="#0EA5E9"
        d="M220.322 143.107l3.999 35.504c4.355 1.03 8.235 1.466 11.639 1.466 11.561.079 17.579-4.279 17.579-4.279l-2.257-34.593c-8.433 1.703-14.926 2.377-19.756 2.575-7.839.317-11.204-.673-11.204-.673z"
      ></path>
      <path
        fill="#0EA5E9"
        d="M256.667 152.894l-7.087 13.314 3.563 3.963 6.968-12.68-3.444-4.597z"
      ></path>
      <path
        fill="#EAB308"
        d="M473.906 347.733l-12.709 14.027-5.067-4.715 12.867-15.89 4.909 6.578z"
      ></path>
      <path
        fill="#EAB308"
        d="M477.785 349l-2.732 2.338-9.383-11.689 3.841-3.566L477.785 349z"
      ></path>
      <path
        fill="#fff"
        d="M152.263 431.422a4.993 4.993 0 001.465 3.685c.832.872 1.98 1.426 3.247 1.545.119 0 .277.04.396.04l561.725 9.035c2.85.039 5.226-2.22 5.265-5.073.04-1.426-.554-2.734-1.464-3.685-.911-.951-2.218-1.545-3.643-1.585l-561.725-9.034c-2.89-.08-5.226 2.179-5.266 5.072z"
      ></path>
      <path
        fill="#fff"
        d="M30.124 130.902c-1.544 1.942-4.236 4.676-8.116 6.3-.91.397-1.069 1.585-.277 2.18 2.019 1.545 4.988 4.24 6.414 7.489.435.991 1.781 1.03 2.296.079 1.227-2.338 3.405-5.191 6.929-6.617a1.28 1.28 0 00.356-2.18c-1.782-1.466-4.276-3.923-5.424-6.934-.357-.872-1.584-1.07-2.178-.317zM65.36 181.147c-1.187 2.377-3.76 6.38-8.432 8.123a.675.675 0 00-.159 1.149c2.02 1.427 6.216 4.835 7.483 9.035.198.594.99.634 1.227.079 1.148-2.576 3.564-6.498 8.235-7.925.515-.158.634-.792.238-1.149-1.98-1.585-6.097-5.27-7.443-9.272-.12-.516-.871-.555-1.148-.04zM191.222 11.51c-.911 1.823-2.89 4.874-6.453 6.222-.357.158-.436.634-.119.872 1.544 1.11 4.751 3.724 5.741 6.934.118.436.752.476.95.08.871-1.982 2.732-4.993 6.334-6.063a.498.498 0 00.159-.872c-1.505-1.229-4.672-4.042-5.701-7.093-.119-.476-.713-.476-.911-.08z"
        opacity="0.2"
      ></path>
      <path
        fill="#fff"
        d="M620.039 82.678c-.713 1.466-2.336 3.962-5.227 5.032-.316.119-.356.515-.079.713 1.267.912 3.841 3.012 4.632 5.588a.4.4 0 00.753.04c.712-1.586 2.217-4.043 5.107-4.914.317-.08.396-.516.158-.714-1.227-.99-3.761-3.249-4.592-5.745-.119-.317-.594-.317-.752 0zM356.082 95.992c-.792 1.624-2.574 4.319-5.741 5.547-.317.119-.396.555-.079.793 1.385.99 4.236 3.289 5.107 6.142.119.396.673.436.831.039.792-1.743 2.416-4.438 5.622-5.389a.458.458 0 00.159-.792c-1.346-1.07-4.157-3.567-5.068-6.3-.158-.357-.673-.397-.831-.04z"
      ></path>
      <path
        fill="#fff"
        d="M121.105 192.083c-.832 1.704-2.692 4.557-6.018 5.825-.356.119-.396.595-.119.833 1.425 1.03 4.434 3.487 5.345 6.458a.454.454 0 00.871.04c.831-1.862 2.574-4.676 5.899-5.666.357-.119.436-.595.159-.832-1.426-1.15-4.355-3.765-5.306-6.618-.118-.357-.673-.396-.831-.04zM53.324 198.662c-.436.871-1.346 2.298-3.049 2.932-.158.079-.198.317-.04.396.713.515 2.218 1.744 2.693 3.249.08.198.356.238.436.04.395-.951 1.306-2.338 2.969-2.853.198-.04.237-.277.08-.396-.714-.555-2.178-1.902-2.693-3.329 0-.198-.277-.238-.396-.039z"
        opacity="0.2"
      ></path>
      <path
        fill="#fff"
        d="M636.786 60.33c1.227 3.526 3.801 8.796 9.066 12.64.555.396.475 1.228-.079 1.585-2.692 1.545-8.75 5.507-11.165 11.174-.356.793-1.504.753-1.742-.08-1.108-3.486-3.365-8.875-7.601-12.085-.475-.357-.475-1.11 0-1.466 2.296-1.783 7.76-6.46 9.818-11.769.277-.832 1.426-.793 1.703 0z"
      ></path>
      <path
        fill="#111827"
        d="M619.405 138.946a7.565 7.565 0 01-7.562-7.568c0-4.18 3.385-7.569 7.562-7.569 4.176 0 7.562 3.389 7.562 7.569 0 4.179-3.386 7.568-7.562 7.568z"
      ></path>
      <path
        fill="#0EA5E9"
        d="M665.172 248.788l4.316 6.578c1.069 1.624 3.642 2.02 7.087 1.386 4.315-.792 9.977-3.209 15.599-6.894 2.336-1.546 4.474-3.17 6.334-4.795 6.256-5.468 9.581-11.095 7.76-13.869l-4.315-6.578-8.908 5.865-25.062 16.484-2.811 1.823z"
      ></path>
      <path
        fill="#fff"
        d="M665.172 248.788l4.315 6.578c1.069 1.624 3.643 2.02 7.087 1.386l-5.384-9.47-3.247-.357-2.771 1.863zM691.461 234.839s4.157 5.984 7.047 10.263c6.256-5.468 9.581-11.095 7.76-13.868l-4.315-6.578-8.908 5.864-1.584 4.319z"
      ></path>
      <path
        fill="#0EA5E9"
        d="M665.157 248.817c-2.388-3.641 3.914-12.006 14.076-18.685 10.163-6.679 20.337-9.142 22.726-5.502 2.388 3.641-3.914 12.006-14.076 18.685-10.163 6.679-20.337 9.142-22.726 5.502z"
      ></path>
      <path
        fill="#FBBF24"
        d="M667.111 166.072a6.301 6.301 0 014.669-7.587 6.296 6.296 0 017.58 4.673 6.295 6.295 0 11-12.249 2.914z"
      ></path>
      <path
        fill="#0EA5E9"
        d="M580.011 165.099l13.184 3.724 11.363 3.21 23.596 9.748c6.335-20.288-2.375-32.929-2.375-32.929l3.246-13.393c-3.959-5.667-9.145-7.49-9.145-7.49s-1.94-.673-4.949-.713a22.031 22.031 0 00-6.889.951l-5.781 12.482s-14.688 4.557-22.25 24.41z"
      ></path>
      <path
        fill="#0EA5E9"
        d="M580.011 165.099l13.184 3.724c4.553-22.309 17.381-24.369 17.381-24.369.198-6.38 2.336-12.68 4.276-17.198a22.031 22.031 0 00-6.889.951l-5.702 12.482s-14.688 4.557-22.25 24.41z"
      ></path>
      <path
        fill="#0EA5E9"
        d="M601.125 181.922c-13.285-4.609-22.737-12.15-21.111-16.844 1.625-4.694 13.713-4.763 26.998-.155 13.285 4.609 22.737 12.15 21.111 16.844-1.625 4.694-13.713 4.763-26.998.155z"
      ></path>
      <path
        fill="#111827"
        d="M584.049 166.486c-1.346 3.923 6.533 10.184 17.579 14.027 11.085 3.844 21.142 3.765 22.488-.119 1.108-3.17-3.801-7.845-11.561-11.57a48.778 48.778 0 00-6.018-2.457c-2.771-.951-5.464-1.664-7.997-2.14-7.562-1.466-13.501-.673-14.491 2.259z"
      ></path>
      <path
        fill="#fff"
        d="M596.718 167.159a8.23 8.23 0 005.029 10.422c4.275 1.466 8.908-.793 10.412-5.033a7.914 7.914 0 00.396-3.685 49.092 49.092 0 00-6.018-2.457c-2.771-.951-5.463-1.664-7.997-2.139-.792.752-1.426 1.743-1.822 2.892zM547.546 418.187l-102.305-6.499 118.023-15.375-15.718 21.874z"
      ></path>
      <path
        fill="#64748B"
        d="M445.241 411.688v4.359l202.59 7.291 1.228-5.151-203.818-6.499z"
      ></path>
      <path
        fill="#FBBF24"
        d="M597.154 349.199l-7.958-2.932L575.3 366.04l7.72 2.853 14.134-19.694z"
      ></path>
      <path
        fill="#111827"
        d="M626.927 319.599l2.89-6.697h15.362l-2.693 6.697h-15.559z"
      ></path>
      <path
        fill="#0EA5E9"
        d="M649.692 362.354c-.079.397-.238.832-.396 1.229-2.099 5.626-6.81 11.134-12.551 13.195-4.513 1.625-10.65.277-12.313-4.715-.673-2.101-.554-4.359-.079-6.499.95-4.2 3.326-8.123 6.81-10.62 6.255-4.398 21.063-3.289 18.529 7.41zM51.186 335.766l6.216 27.302c.317 1.347 2.02 2.1 3.88 1.704l29.694-6.38c1.821-.396 3.088-1.783 2.771-3.131l-6.216-27.302-36.345 7.807z"
      ></path>
      <path
        fill="#0EA5E9"
        d="M62.232 363.662c.515 2.298 7.087 2.853 14.65 1.228 3.958-.832 7.403-2.139 9.739-3.487 2.098-1.228 3.286-2.536 3.048-3.606-.514-2.298-7.087-2.853-14.649-1.228-7.245 1.545-12.827 4.557-12.788 6.816-.04.118-.04.198 0 .277z"
      ></path>
      <path
        fill="#0EA5E9"
        d="M51.187 335.766l6.216 27.302c.316 1.347 2.019 2.1 3.88 1.703l9.977-2.139-6.77-29.719-13.303 2.853z"
      ></path>
      <path
        fill="#0EA5E9"
        d="M55.344 335.964c3.602 0 8.868-.713 14.53-1.902 10.69-2.298 16.114-4.913 16.826-5.904-.277-.119-1.069-.436-3.326-.436-3.602 0-8.868.713-14.53 1.902-10.69 2.298-16.113 4.914-16.826 5.904.277.159 1.108.436 3.326.436z"
      ></path>
      <path
        fill="#0EA5E9"
        d="M83.374 328.514c-3.484 0-8.868.713-14.372 1.902-7.76 1.665-12.748 3.527-15.005 4.716.356.039.832.039 1.346.039 3.484 0 8.869-.713 14.372-1.902 7.76-1.664 12.748-3.526 15.005-4.715-.356 0-.792-.04-1.346-.04zm0-1.585c2.455 0 3.999.317 4.157 1.03.357 1.665-7.443 4.716-17.5 6.895-5.859 1.268-11.204 1.902-14.688 1.902-2.454 0-3.999-.317-4.157-1.03-.356-1.664 7.443-4.715 17.5-6.895 5.899-1.228 11.204-1.902 14.688-1.902zM62.233 363.662c.514 2.299 7.087 2.854 14.649 1.229 3.959-.832 7.403-2.14 9.74-3.488-15.006 2.656-15.362 1.189-15.362 1.189l-9.027.793c-.04.119-.04.198 0 .277z"
      ></path>
      <path
        fill="#22C55E"
        d="M66.152 332.833s6.968-19.179-5.464-25.003c-7.284-3.408-13.896 2.536-14.688 9.549-1.03 9.312 8.829 14.582 16.945 16.128 0 0 1.821.357 3.207-.674zM71.14 332.437s-.95-27.025 8.156-28.729c9.106-1.704 4.593 20.566-4.711 27.976a8.065 8.065 0 01-3.445.753z"
      ></path>
      <path
        fill="#FBBF24"
        d="M55.78 283.46c.316-3.685-.436-6.934-3.05-9.748-.989-1.07-4.235-4.438-6.017-2.972-1.425 1.149.08 4.676.594 5.904 1.03 2.497 3.167 4.637 4.038 7.133-1.782-2.457-8.67-5.785-11.283-2.259-2.138 2.853 1.346 5.905 3.682 7.133 2.217 1.189 4.513 1.506 6.968 1.347-1.109 2.774-1.386 7.569 2.89 8.203 5.86.871 5.543-6.538 3.761-9.867 2.455-1.07 6.612-.04 7.76-3.527 1.9-5.825-8.552-4.794-9.344-1.347z"
      ></path>
      <path
        fill="#fff"
        d="M54.671 286.551c0 .158-.04.277-.08.436-.197.872-1.029 1.466-2.058 1.268-1.108-.238-1.267-1.229-.91-2.1.277-.714.95-1.388 1.9-1.308 1.069.119 1.227.911 1.148 1.704zM65.955 332.754c3.484-6.895 3.286-15.771 1.9-23.22-1.306-7.252-4.236-14.265-9.264-19.734-.515-.555.317-1.387.831-.832 5.306 5.746 8.394 13.195 9.7 20.843 1.307 7.648 1.425 16.484-2.138 23.538-.356.713-1.385.119-1.03-.595z"
      ></path>
      <path
        fill="#22C55E"
        d="M68.527 303.154c-.594.713-1.781.317-1.781-.595.118-4.596-.317-10.421 3.681-12.363 2.06-.991 3.84.911 4.118 2.813.237 1.665-.594 3.606-1.584 4.914-1.346 1.823-2.89 3.289-4.434 5.231z"
      ></path>
      <path
        fill="#111827"
        d="M67.024 303.907c.791-1.268 2.375-1.546 3.721-1.744.753-.119 1.07 1.03.317 1.149-.99.159-2.455.278-3.049 1.189-.356.674-1.385.08-.99-.594z"
      ></path>
      <path
        fill="#fff"
        d="M68.33 313.813c-.95-3.883-4.038-7.172-7.206-9.431-.633-.436-.04-1.466.594-1.03 3.445 2.417 6.73 5.904 7.76 10.144.198.753-.95 1.07-1.148.317z"
      ></path>
      <path
        fill="#111827"
        d="M407.154 209.836c-4.315 1.387-10.531-1.744-10.966-6.459-.08-.753 1.108-.753 1.187 0 .357 3.923 5.979 6.459 9.463 5.309.752-.237 1.029.912.316 1.15zM371.284 186.179c.554-1.624 1.386-9.906-1.782-8.796-.712.237-1.029-.912-.316-1.15 4.751-1.664 4.038 7.925 3.246 10.263-.237.714-1.386.397-1.148-.317z"
      ></path>
      <path
        fill="#111827"
        d="M371.878 182.732c-.198-.911-.99-1.268-1.742-1.664-.673-.357-.079-1.387.594-1.031 1.029.555 2.019 1.15 2.296 2.378.158.753-.99 1.07-1.148.317zM425.565 190.816c1.583-1.506 2.336-3.606 3.246-5.548.317-.713 1.346-.079 1.03.594-.951 2.061-1.782 4.161-3.405 5.786-.594.554-1.426-.278-.871-.832zM422.476 200.405c-1.425 3.289-.91 7.053-2.336 10.421a17.01 17.01 0 01-5.146 6.776c-4.514 3.566-11.324 3.804-16.748 2.615-10.135-2.258-21.34-13.433-17.776-24.607.237-.713 1.385-.396 1.148.317-3.445 10.818 7.879 21.437 17.618 23.26 5.543 1.03 11.996.515 16.233-3.566 2.256-2.179 3.919-5.072 4.473-8.203.476-2.575.436-5.151 1.505-7.608.317-.673 1.346-.079 1.029.595z"
      ></path>
      <path
        fill="#111827"
        d="M370.374 171.993c-2.415 1.308-4.592 2.853-6.216 5.112-1.504 2.1-3.602 5.191-2.929 7.886 1.227 4.992 6.849 8.321 11.164 10.183.713.317.08 1.308-.593 1.031-2.732-1.189-5.385-2.655-7.562-4.716-1.861-1.743-4.158-4.517-4.356-7.172-.197-2.615 1.624-5.508 3.049-7.569 1.782-2.536 4.118-4.319 6.81-5.824.712-.317 1.306.713.633 1.069z"
      ></path>
      <path
        fill="#111827"
        d="M371.284 195.808c-1.663 1.942-2.692 4.359-4.038 6.538-.396.634-1.425.04-1.029-.594 1.385-2.259 2.454-4.716 4.196-6.776.515-.594 1.346.238.871.832zM395.752 219.227c-.753 1.704-1.782 3.21-2.336 5.033-.594 1.862-.753 3.804-1.148 5.706-.159.753-1.307.436-1.149-.317.475-2.14.634-4.359 1.426-6.419.594-1.625 1.544-3.052 2.217-4.597.277-.713 1.306-.119.99.594zM393.574 145.324c-.752 0-.752-1.187 0-1.187.753 0 .753 1.187 0 1.187zM394.485 145.009c-.198-.832-.079-1.625-.119-2.457a7.565 7.565 0 00-.831-2.932c-.357-.674.673-1.268 1.029-.595.436.832.752 1.704.871 2.655.158.991 0 2.021.198 3.012.158.753-.95 1.07-1.148.317z"
      ></path>
      <path
        fill="#111827"
        d="M394.207 144.93c-.079-.833-.475-1.625-.792-2.418-.277-.713.871-1.03 1.149-.317.356.912.752 1.744.871 2.735.039.753-1.149.753-1.228 0zM385.498 147.941c-.674-.674-1.545-1.11-2.297-1.704-.594-.476.238-1.308.832-.832.752.594 1.623 1.03 2.296 1.704.554.515-.277 1.347-.831.832z"
      ></path>
      <path
        fill="#fff"
        d="M441.282 163.632c-3.088.396-6.097 1.109-9.185 1.149-.752 0-.752-1.188 0-1.188 3.088-.04 6.137-.753 9.185-1.149.753-.08.753 1.109 0 1.188z"
      ></path>
      <path
        fill="#FCC9BF"
        d="M430.949 186.972c-2.772.753-5.622.158-8.196-.991-.712-.316-.079-1.346.594-1.03 2.257 1.03 4.83 1.545 7.285.872.752-.198 1.069.951.317 1.149z"
      ></path>
      <path
        fill="#16A34A"
        d="M394.089 254.811c.04 4.438.555 8.876.555 13.354 0 4.2-.396 8.4-1.069 12.521-.119.753-1.267.436-1.149-.317a75.093 75.093 0 001.03-12.997c-.04-4.2-.515-8.4-.554-12.601-.04-.713 1.148-.713 1.187.04zM443.381 301.212c-5.661 8.678-14.728 15.652-24.982 17.792-9.423 1.981-19.519 0-27.002-6.221-.593-.476.238-1.308.832-.832 7.285 6.062 17.262 7.885 26.407 5.785 9.74-2.219 18.292-8.837 23.716-17.118.435-.634 1.465-.04 1.029.594z"
      ></path>
      <path
        fill="#16A34A"
        d="M442.352 301.331c-4.395-7.925-10.254-14.899-15.322-22.388-.436-.634.594-1.229 1.029-.595 5.028 7.529 10.928 14.463 15.322 22.389.357.673-.673 1.268-1.029.594z"
      ></path>
      <path
        fill="#111827"
        d="M392.149 234.483c-7.245 3.844-17.301.951-22.884-4.557-6.136-6.063-8.076-15.216-5.147-23.3.278-.713 1.426-.396 1.149.317-2.732 7.489-1.149 15.969 4.434 21.755 5.186 5.389 14.926 8.44 21.854 4.755.673-.357 1.267.673.594 1.03z"
      ></path>
      <path
        fill="#16A34A"
        d="M358.575 204.962c-8.908-3.645-18.766-2.893-28.149-4.042-9.542-1.149-18.925-3.487-28.031-6.578-.713-.237-.396-1.386.317-1.149 9.462 3.21 19.241 5.627 29.179 6.697 9.027.991 18.41.436 27.001 3.923.713.277.396 1.426-.317 1.149zM318.469 239.159c-1.703 1.783-4.078 3.011-6.097 4.438-2.336 1.624-4.83 2.972-7.602 3.685-.752.198-1.069-.951-.316-1.149 2.692-.674 5.067-1.982 7.324-3.567 1.94-1.347 4.236-2.536 5.859-4.239.515-.555 1.347.277.832.832zM440.372 297.448c-5.701 6.419-13.145 10.897-21.38 13.195-8.393 2.338-17.578 2.893-25.576-1.03-.673-.317-.079-1.347.594-1.03 7.879 3.843 17.064 3.13 25.26.713 7.839-2.259 14.846-6.618 20.27-12.72.475-.555 1.307.277.832.872z"
      ></path>
      <path
        fill="#fff"
        d="M375.203 329.188c-8.076-12.245-17.776-23.26-28.07-33.642-10.056-10.105-20.429-20.328-32.069-28.61-6.612-4.715-13.699-8.717-21.261-11.65-.713-.277-.396-1.426.317-1.149 13.184 5.072 24.705 13.394 35.157 22.785 11.125 10.025 21.973 20.526 31.792 31.859 5.464 6.3 10.571 12.878 15.164 19.852.435.594-.594 1.189-1.03.555z"
      ></path>
      <path
        fill="#16A34A"
        d="M315.184 196.958c5.701 10.58 8.947 22.19 10.689 34.078.119.753-1.029 1.07-1.148.317-1.702-11.769-4.909-23.26-10.571-33.761-.356-.674.673-1.308 1.03-.634zM303.978 248.075c-5.147 4.24-10.531 7.925-16.747 10.342-6.493 2.496-13.224 4.755-20.113 5.587-3.523.436-7.047.595-10.531.912-3.563.317-8.077.317-10.888 2.813-4.078 3.606-.95 10.342 1.188 14.186.356.673-.673 1.268-1.029.594-1.742-3.13-3.405-6.736-3.286-10.421.158-4.161 3.167-6.538 7.007-7.45 5.701-1.387 11.799-1.109 17.579-1.823 6.216-.753 12.234-2.734 18.093-4.913 6.731-2.457 12.432-6.103 17.935-10.659.515-.476 1.386.356.792.832zM391.277 296.457c-4.315 11.848-9.026 23.419-15.678 34.157a139.625 139.625 0 01-10.452 14.583c-3.959 4.755-7.997 9.668-12.867 13.552-4.91 3.923-10.69 6.855-17.064 6.776-.752 0-.752-1.189 0-1.189 12.352.158 21.181-10.62 28.466-19.219 7.483-8.876 13.699-18.822 18.608-29.322 3.009-6.38 5.464-12.998 7.839-19.655.277-.713 1.426-.396 1.148.317z"
      ></path>
      <path
        fill="#0EA5E9"
        d="M220.322 143.106l3.999 35.505c4.355 1.03 8.235 1.466 11.64 1.466l-4.395-36.297c-7.878.317-11.244-.674-11.244-.674z"
      ></path>
      <path
        fill="#0284C7"
        d="M232.872 145.01c1.029 0 2.059-.04 3.128-.08 9.304-.436 14.49-2.338 14.648-3.25-.198-.673-3.919-1.981-11.758-1.981-1.03 0-2.059.039-3.128.079-9.304.436-14.49 2.338-14.649 3.25.159.674 3.92 1.982 11.759 1.982z"
      ></path>
      <path
        fill="#0EA5E9"
        d="M238.89 140.491c-1.029 0-2.059.04-3.088.08-7.126.317-11.679 1.545-13.342 2.377 1.385.555 4.711 1.268 10.412 1.268 1.03 0 2.059-.04 3.088-.079 7.127-.317 11.68-1.546 13.343-2.378-1.386-.554-4.751-1.268-10.413-1.268zm0-1.585c7.087 0 12.472 1.11 12.551 2.734.079 1.863-6.81 3.686-15.401 4.082-1.069.039-2.138.079-3.168.079-7.087 0-12.471-1.109-12.55-2.734-.079-1.862 6.809-3.685 15.401-4.081a85.83 85.83 0 013.167-.08z"
      ></path>
      <path
        fill="#111827"
        d="M229.547 142.354s-2.336-17.792-13.382-17.356c-11.046.475 13.382 17.356 13.382 17.356zM220.559 139.343s-5.464-7.927-11.917-3.29c-6.414 4.598 11.917 3.29 11.917 3.29z"
      ></path>
      <path
        fill="#0284C7"
        d="M246.729 149.684c.119 1.229.317 2.457.515 3.685.079.634-.158 1.268-.831 1.467-.555.158-1.346-.199-1.465-.833a79.817 79.817 0 01-.594-4.319c-.158-1.545 2.217-1.505 2.375 0zM248.115 157.808c.079 1.625.356 3.21.713 4.755.316 1.506-1.98 2.14-2.297.634-.396-1.783-.712-3.566-.792-5.389-.079-1.545 2.297-1.545 2.376 0z"
      ></path>
      <path
        fill="#111827"
        d="M213.828 137.162c-.752 0-.752-1.188 0-1.188.753 0 .753 1.188 0 1.188zM232.081 143.503c-2.693 0-5.226.436-7.879.674-1.505.119-1.505-2.259 0-2.378 2.653-.238 5.186-.674 7.879-.674 1.504 0 1.504 2.378 0 2.378z"
      ></path>
      <path
        fill="#111827"
        d="M230.18 144.771c-1.504.357-3.048.317-4.553.199-1.267-.08-2.336-.278-3.128-1.348-.475-.594.04-1.585.713-1.744a4.349 4.349 0 011.227-.158c1.544-.08 1.505 2.298 0 2.378-.198.039-.396.079-.593.079.237-.595.475-1.149.712-1.744.238.317 1.742.198 2.138.238.99.04 1.94.079 2.89-.159 1.465-.396 2.099 1.903.594 2.259z"
      ></path>
      <path
        fill="#111827"
        d="M227.25 143.384c0 1.506-.159 3.051.158 4.518.277 1.505-1.979 2.139-2.296.634-.317-1.704-.238-3.408-.238-5.152 0-1.506 2.376-1.506 2.376 0z"
      ></path>
      <path
        fill="#111827"
        d="M229.27 144.731c0 3.091-.317 6.539.316 9.55.317 1.506-1.979 2.14-2.296.634-.673-3.289-.396-6.855-.396-10.184-.039-1.545 2.336-1.545 2.376 0zM219.213 139.937c-1.623-1.426-4.236-1.743-6.295-1.307-1.504.317-2.138-1.982-.633-2.299 2.929-.595 6.295-.079 8.591 1.942 1.188.991-.515 2.695-1.663 1.664zM216.482 142.75c-.04 0-.119.04-.159.04.08-.04.198-.079.278-.119-.04 0-.159.079-.119.079.039.04.198-.198.039 0-.435.476-1.266.476-1.662 0a1.222 1.222 0 010-1.664c.277-.278.633-.516.989-.595.594-.158 1.307.198 1.465.832.119.555-.198 1.269-.831 1.427zM296.773 210.073c-5.939.119-11.878.515-17.777 1.149-.752.079-.752-1.109 0-1.188a204.897 204.897 0 0117.777-1.149c.752-.04.752 1.149 0 1.188z"
      ></path>
      <path
        fill="#111827"
        d="M279.947 210.509c-5.583-13.116-10.69-26.43-17.46-38.991-.357-.674.673-1.268 1.029-.595 6.81 12.522 11.917 25.876 17.46 38.992.277.713-.713 1.307-1.029.594z"
      ></path>
      <path
        fill="#111827"
        d="M267.277 156.302c.752 2.298 1.148 5.191.237 7.529-.475 1.149-1.148 2.258-1.702 3.368-.634 1.387-1.227 2.774-2.059 4.042-.435.634-1.465.039-1.029-.595 1.267-1.862 2.019-4.002 3.048-5.983 1.346-2.536 1.228-5.35.357-8.044-.238-.713.91-1.03 1.148-.317zM264.467 152.894c-1.822-2.457-5.108-2.893-7.562-4.557-.555-.396-1.109-.951-1.742-1.228-1.624-.714-2.099-.04-1.822 1.545.317 1.744 1.426 3.051 2.693 4.161.593.515-.278 1.347-.832.832-1.623-1.427-2.93-3.17-3.128-5.389-.118-1.268.198-3.131 1.822-2.972 1.069.079 2.019.911 2.811 1.506a17.943 17.943 0 003.286 1.862c2.059.911 4.038 1.744 5.424 3.646.514.634-.515 1.228-.95.594zM254.608 193.708c1.544 11.928 3.088 23.776 5.701 35.505.515 2.219.911 4.557 2.178 6.498 1.583 2.418 4.434 3.527 7.126 4.161 5.979 1.387 12.234.832 18.292.872.752 0 .752 1.189 0 1.189-6.295-.04-12.749.515-18.925-.991-2.297-.555-4.672-1.506-6.374-3.21-1.624-1.624-2.416-3.843-2.93-6.023-3.128-12.482-4.593-25.281-6.256-38.04-.118-.713 1.069-.714 1.188.039zM450.032 351.22c-11.442-8.758-22.052-18.624-32.386-28.65-.554-.515.277-1.387.832-.832 10.254 9.946 20.785 19.734 32.148 28.451.594.436 0 1.506-.594 1.031zM496.393 362.433c2.732 1.784 5.899 2.616 8.75 4.121 2.573 1.348 3.563 3.884 4.751 6.42 1.425 3.17 2.573 6.419 3.642 9.748.792 2.456 2.019 5.032 2.257 7.608.158 1.783-.475 3.289-2.178 3.962-2.177.872-2.969-.753-4.078-2.338-3.523-5.151-7.799-10.897-8.551-17.237-.079-.753 1.108-.753 1.187 0 .594 5.152 3.88 9.946 6.691 14.186.634.991 1.347 1.902 1.98 2.853.95 1.387 2.969 1.982 3.682.119.633-1.704-.554-4.002-1.109-5.627-1.742-5.151-3.246-10.302-5.78-15.137-.554-1.03-1.029-2.139-1.98-2.892-1.108-.832-2.652-1.387-3.919-1.902-2.059-.832-4.078-1.665-5.978-2.853-.594-.397 0-1.427.633-1.031z"
      ></path>
      <path
        fill="#111827"
        d="M501.184 378.007c-4.236-3.487-9.818-5.112-13.659-9.194-.514-.554.317-1.386.832-.832 3.8 4.082 9.422 5.706 13.659 9.193.594.476-.277 1.308-.832.833z"
      ></path>
      <path
        fill="#111827"
        d="M489.109 370.002c-2.771 2.299-6.81 3.091-10.294 2.14-.752-.198-.435-1.347.317-1.149 3.009.832 6.691.198 9.106-1.823.594-.476 1.465.357.871.832z"
      ></path>
      <path
        fill="#111827"
        d="M478.459 369.606c.435 1.505.633 3.051.989 4.596.317 1.308.871 2.497.871 3.884 0 .752-1.187.752-1.187 0 0-1.427-.634-2.695-.951-4.042-.277-1.387-.475-2.734-.871-4.082-.198-.753.951-1.07 1.149-.356z"
      ></path>
      <path
        fill="#111827"
        d="M477.547 376.778c1.901 1.109 4.078 1.387 5.82 2.853 1.188.99 2.02 2.417 2.376 3.923.752 3.526-2.692 5.032-5.701 4.794-3.92-.277-8.037-2.615-11.284-4.715-2.93-1.902-5.582-4.874-6.137-8.44-.118-.753 1.03-1.07 1.149-.317.95 6.062 7.76 9.589 12.986 11.491 2.613.951 9.106 1.664 7.72-3.011-1.109-3.725-4.632-3.923-7.522-5.588-.673-.317-.04-1.347.593-.99zM529.056 382.127c-2.929 2.536-7.997.436-10.729-1.387-4.315-2.932-8.116-7.251-11.283-11.372-.476-.594.554-1.189 1.029-.594 2.613 3.447 5.741 6.776 9.066 9.589 2.376 1.981 7.998 5.587 11.086 2.972.594-.555 1.425.277.831.792z"
      ></path>
      <path
        fill="#111827"
        d="M528.027 381.494c.554-.793-1.702-2.814-2.138-3.329-1.069-1.228-2.059-2.536-3.048-3.844-2.693-3.526-5.424-7.053-8.235-10.5-.99-1.229-1.901-2.536-2.97-3.685-1.583-1.665-3.325-2.338-5.543-2.655-4.355-.595-8.947-.872-13.342-.991-.752 0-.752-1.189 0-1.189 2.653.04 5.266.357 7.879.555 2.336.159 4.751.198 7.047.674 4.078.832 6.058 4.358 8.552 7.37 3.405 4.042 6.414 8.401 9.739 12.482.951 1.189 4.395 3.963 3.089 5.706-.436.634-1.465.04-1.03-.594z"
      ></path>
      <path
        fill="#111827"
        d="M506.45 344.761c2.059.475 2.455 2.298 1.504 4.041-1.623 2.933-3.642 5.984-6.295 8.084-.594.476-1.425-.357-.831-.832 1.663-1.347 2.851-2.853 3.999-4.636.752-1.189 4.038-4.874 1.306-5.508-.752-.198-.435-1.347.317-1.149z"
      ></path>
      <path
        fill="#fff"
        d="M472.044 348.208c-1.306-1.546-2.415-3.249-3.761-4.755-.515-.555.317-1.427.832-.832 1.346 1.505 2.415 3.209 3.761 4.755.475.594-.357 1.426-.832.832z"
      ></path>
      <path
        fill="#EAB308"
        d="M265.139 308.781c-2.811 1.466-5.622 2.853-8.195 4.755-3.603 2.655-7.047 5.626-10.254 8.757-6.137 5.944-11.759 12.403-16.589 19.456-.436.634-1.465.04-1.029-.594 4.869-7.133 10.57-13.671 16.747-19.694 3.048-2.933 6.216-5.706 9.621-8.282 2.85-2.14 5.938-3.764 9.106-5.389.673-.396 1.267.634.593.991z"
      ></path>
      <path
        fill="#EAB308"
        d="M230.339 339.768c-.792-1.902-1.386-3.923-2.495-5.706-1.385-2.219-3.642-3.249-6.176-3.685-5.305-.951-8.908 5.904-10.294 10.144-.237.713-1.385.396-1.148-.317 1.505-4.557 5.305-11.729 10.967-11.095 2.494.277 5.147 1.268 6.81 3.209 1.702 2.021 2.415 4.676 3.405 7.093.356.753-.792 1.07-1.069.357z"
      ></path>
      <path
        fill="#EAB308"
        d="M211.493 337.192c-1.148-3.566-2.811-6.102-5.305-8.876-.514-.555.317-1.426.832-.832 2.613 2.932 4.434 5.666 5.622 9.431.237.713-.911.99-1.149.277zM191.421 326.533c-1.505.396-3.049 2.021-4.237 3.011-1.346 1.149-2.613 2.378-3.325 4.042-.317.713-1.307.079-1.03-.594.792-1.902 2.336-3.289 3.88-4.597 1.307-1.07 2.732-2.576 4.395-3.011.712-.159 1.029.99.317 1.149zM191.974 252.631c2.653 1.387 9.779 6.42 5.978 9.828-1.544 1.347-3.998 1.822-5.899 2.337a26.609 26.609 0 01-9.541.674c-.753-.079-.753-1.268 0-1.189 4.196.476 8.274-.158 12.273-1.505.871-.278 1.821-.634 2.455-1.308 1.187-1.308.118-2.695-.832-3.804-1.385-1.664-3.128-2.972-5.028-3.963-.673-.396-.079-1.426.594-1.07z"
      ></path>
      <path
        fill="#EAB308"
        d="M190.351 233.73c1.386.991 3.049 1.466 4.554 2.259a32.675 32.675 0 014.315 2.694c2.019 1.546 4.078 3.21 4.711 5.786 1.426 5.745-6.136 9.153-10.729 9.708-.752.079-.752-1.11 0-1.189 2.851-.357 5.741-1.664 7.879-3.566 2.415-2.1 2.217-5.112.158-7.41-1.465-1.625-3.405-2.972-5.265-4.082-2.02-1.188-4.356-1.862-6.256-3.209-.594-.397 0-1.427.633-.991zM187.104 265.312c.317 4.319 1.465 8.519 1.861 12.838.436 4.597.871 9.154 1.386 13.711.079.753-1.109.753-1.188 0-.554-4.557-.99-9.154-1.386-13.711-.396-4.319-1.544-8.519-1.861-12.838-.039-.753 1.149-.753 1.188 0zM189.994 294.316c-.752 0-.752-1.188 0-1.188.792 0 .792 1.188 0 1.188zM289.449 319.916c-22.132 20.248-48.183 38.793-77.798 45.688-8.235 1.902-16.668 2.813-25.101 2.496-.752-.039-.752-1.228 0-1.188 30.446 1.149 59.031-13.79 82.746-31.661 6.731-5.072 13.145-10.501 19.361-16.207.514-.476 1.346.357.792.872z"
      ></path>
      <path
        fill="#EAB308"
        d="M186.154 367.189a10.7 10.7 0 002.415-2.893c.357-.634.832-1.427.475-2.14-.396-.832-1.108-.674-1.821-.277-1.782.951-2.969 2.734-4.355 4.121-.554.555-1.346-.278-.831-.832 1.069-1.189 1.781-2.774 2.019-4.359.277-1.823-.634-3.646-2.653-2.576-1.94 1.07-3.642 3.368-4.513 5.389-.317.713-1.346.079-1.03-.594 1.03-2.338 4.157-6.935 7.206-6.301 4.276.872 1.465 7.45-.238 9.312l-.831-.832c1.544-1.545 4.316-5.745 7.008-4.676 3.523 1.387-.436 6.261-2.019 7.529-.594.436-1.426-.396-.832-.871zM182.868 264.915c.119 5.508-.395 11.016-.871 16.484-.475 5.39-.791 10.818-1.108 16.247-.594 10.382-1.346 20.883-4.395 30.868-.237.713-1.386.436-1.148-.317 3.088-10.144 3.801-20.764 4.395-31.264.277-5.191.594-10.343 1.069-15.534.514-5.508 1.029-10.976.871-16.484-.04-.753 1.148-.753 1.187 0zM310.551 334.736c-5.464 7.528-13.976 13.987-23.399 15.216-4.514.594-9.383.158-13.54-1.823-4.039-1.902-6.81-4.993-9.186-8.678-.396-.634.594-1.228 1.03-.594 2.256 3.526 4.909 6.459 8.75 8.242 4.157 1.941 9.106 2.298 13.619 1.545 8.71-1.466 16.589-7.489 21.696-14.503.475-.594 1.505 0 1.03.595zM269.613 311.317a71.176 71.176 0 00-7.007 5.944c-1.861 1.783-3.564 3.883-5.543 5.507-3.603 3.012-5.86-.673-8.354-3.09-.554-.515.277-1.387.831-.832 1.188 1.188 2.257 2.971 3.801 3.724 2.217 1.07 4.355-2.139 5.701-3.487 3.128-3.17 6.414-6.142 9.978-8.797.593-.435 1.187.595.593 1.031z"
      ></path>
      <path
        fill="#111827"
        d="M324.368 348.842s-18.37-25.44-61.169-40.497c0 0 3.326-4.795 8.75-5.706 0 0 34.564 11.729 57.962 40.933 0-.04-1.029 4.398-5.543 5.27z"
      ></path>
      <path
        fill="#FBBF24"
        d="M283.747 307.988c-2.692 2.972-5.107 6.221-7.879 9.114-.514.555-1.346-.278-.831-.832 2.771-2.933 5.147-6.142 7.879-9.114.515-.595 1.346.277.831.832zM304.256 319.757c.079-.079.119-.159.198-.278.435-.554 1.187.159.95.714-.792 1.664-2.059 3.051-3.128 4.557-1.148 1.624-2.257 3.209-3.484 4.755-.475.594-1.306-.238-.831-.832 1.306-1.625 2.494-3.369 3.682-5.072.95-1.308 2.019-2.536 2.732-4.003l.95.714c-.079.079-.119.158-.198.277-.515.634-1.346-.238-.871-.832zM324.368 338.103c-3.167 3.448-6.018 7.212-9.383 10.501-.555.515-1.386-.317-.832-.832 3.366-3.289 6.216-7.053 9.383-10.501.476-.554 1.347.278.832.832z"
      ></path>
      <path
        fill="#EAB308"
        d="M171.98 356.291c-.079-.198-.119-.396-.198-.594-.079-.277.119-.673.396-.713.317-.079.634.079.713.396.079.198.119.396.198.594.079.278-.119.674-.396.714-.317.079-.594-.08-.713-.397zM170.357 349.675v-2.616c0-.753 1.188-.753 1.188 0v2.616c0 .792-1.188.792-1.188 0zM193.954 254.059c-3.523-.317-6.809-1.586-9.977-3.092-.673-.317-.079-1.347.594-1.03 2.97 1.427 6.097 2.616 9.344 2.933.792.079.792 1.268.039 1.189z"
      ></path>
      <path
        fill="#fff"
        d="M287.587 271.414c-.158 1.308-.316 2.576-.277 3.883.04 1.546-2.336 1.546-2.375 0-.04-1.307.119-2.615.277-3.883.079-.634.475-1.189 1.188-1.189.593 0 1.267.555 1.187 1.189zM304.534 291.742c-1.03-.238-2.099-.436-3.128-.515-1.505-.119-1.544-2.497 0-2.378 1.267.119 2.534.357 3.761.634 1.505.278.871 2.576-.633 2.259zM302.553 274.029c-.198.991-.514 1.942-.871 2.893-.237.595-.792 1.031-1.465.833-.593-.159-1.069-.872-.831-1.467.356-.951.673-1.902.871-2.893.119-.634.871-.991 1.465-.832.673.198.95.832.831 1.466zM358.219 320.748c-.989.713-1.9 1.546-2.771 2.417-1.069 1.071-2.771-.594-1.663-1.664a24.257 24.257 0 013.286-2.774c.515-.397 1.307-.08 1.623.436.278.594.04 1.228-.475 1.585zM357.902 332.121l-.594-.476c-.119-.079-.119-.079 0 0-.04-.039-.119-.079-.158-.119-.119-.079-.198-.158-.317-.237-.238-.199-.475-.397-.555-.714-.079-.277-.039-.674.119-.911.317-.476 1.109-.833 1.624-.436l1.544 1.189c.475.396.435 1.268 0 1.664-.475.515-1.109.436-1.663.04zM348.836 328.712c-.198.278-.396.595-.594.872-.357.516-1.069.793-1.624.436-.514-.317-.791-1.07-.435-1.625.198-.277.396-.594.594-.872.356-.515 1.069-.792 1.623-.436.515.318.792 1.071.436 1.625zM343.808 213.601c-.159 1.03-.198 2.06-.436 3.091-.356 1.506-2.652.872-2.296-.634.238-1.031.277-2.061.435-3.092.08-.634.911-.99 1.465-.832.713.159.951.793.832 1.467zM346.342 225.766c-.594-.317-1.148-.634-1.782-.872-.554-.238-.752-1.149-.435-1.625.396-.594 1.029-.673 1.623-.436.594.278 1.188.595 1.782.872.554.278.752 1.11.435 1.625-.356.595-1.029.753-1.623.436zM336.602 225.29a4.421 4.421 0 00-.594.634c-.039.08-.079.08 0 0-.039.04-.079.119-.118.159-.08.119-.198.277-.277.436-.317.555-1.069.793-1.624.436-.554-.357-.752-1.07-.435-1.625a7.08 7.08 0 011.346-1.704c.435-.436 1.227-.476 1.663 0 .475.475.514 1.228.039 1.664zM348.439 242.448v.594c0 .634-.554 1.229-1.187 1.189-.634-.039-1.188-.515-1.188-1.189v-.594c0-.634.554-1.229 1.188-1.189.633 0 1.187.515 1.187 1.189zM412.895 273.395c-.475 1.07-1.386 1.784-1.901 2.814-.712 1.348-2.771.159-2.058-1.189.514-.991 1.465-1.744 1.9-2.814.277-.594 1.109-.713 1.623-.436.594.357.673 1.031.436 1.625zM413.33 286.908c-.752-.594-1.504-1.149-2.335-1.625-1.347-.753-.119-2.814 1.187-2.061.832.476 1.584 1.031 2.336 1.625.515.397.792 1.031.436 1.625-.317.516-1.109.833-1.624.436zM385.498 272.207c-.277.396-.594.792-.871 1.189-.198.238-.396.475-.713.555-.277.079-.673.039-.911-.119-.475-.317-.831-1.11-.435-1.625.277-.397.594-.793.871-1.189.198-.238.396-.476.713-.555.277-.079.673-.04.91.119.515.317.832 1.07.436 1.625zM174.119 434.076c-6.454 13.314-12.828 26.708-18.371 40.458-.277.713-1.425.396-1.148-.317 5.582-13.829 11.957-27.342 18.489-40.735.356-.713 1.386-.079 1.03.594zM703.26 442.358c2.573 2.616 4.355 5.825 6.136 9.035 2.099 3.804 4.474 7.489 6.85 11.135 5.186 7.925 10.491 15.81 15.361 23.933.396.674-.633 1.268-1.029.595-4.751-7.925-9.898-15.573-14.966-23.3-2.296-3.527-4.632-7.014-6.691-10.659-1.9-3.448-3.761-7.054-6.532-9.867-.515-.594.316-1.427.871-.872z"
      ></path>
      <path
        fill="#EAB308"
        d="M197.485 440.312c-4.482-.072-8.092-1.585-8.063-3.38.029-1.794 3.686-3.19 8.168-3.118 4.482.072 8.092 1.585 8.063 3.38-.029 1.794-3.686 3.19-8.168 3.118z"
      ></path>
      <path
        fill="#FBBF24"
        d="M197.49 441.065c-4.067-.065-7.343-1.431-7.317-3.05.027-1.62 3.344-2.879 7.411-2.814 4.067.066 7.342 1.432 7.316 3.051-.026 1.619-3.344 2.879-7.41 2.813z"
      ></path>
      <path
        fill="#111827"
        d="M212.8 437.167c-.04 1.783 2.494 3.289 5.661 3.328 3.168.04 5.741-1.347 5.781-3.17.039-1.783-2.495-3.288-5.662-3.328-3.167-.04-5.741 1.387-5.78 3.17z"
      ></path>
      <path
        fill="#0EA5E9"
        d="M213.314 438.277c-.04 1.624 2.257 2.972 5.147 3.011 2.89.04 5.186-1.228 5.226-2.853.04-1.624-2.257-2.972-5.147-3.011-2.85-.04-5.186 1.228-5.226 2.853z"
      ></path>
      <path
        fill="#111827"
        d="M328.961 438.237c-.04 1.783 2.494 3.289 5.662 3.329 3.167.039 5.74-1.347 5.78-3.17.039-1.783-2.494-3.289-5.662-3.329-3.167-.039-5.741 1.387-5.78 3.17z"
      ></path>
      <path
        fill="#0EA5E9"
        d="M334.6 442.373c-2.865-.046-5.165-1.397-5.139-3.016.026-1.619 2.369-2.894 5.233-2.848 2.864.046 5.165 1.396 5.139 3.015-.026 1.62-2.369 2.895-5.233 2.849z"
      ></path>
      <path
        fill="#111827"
        d="M94.223 356.212c-4.236 4.597-10.65 6.459-16.59 7.648-3.681.753-7.482 1.189-11.243 1.427-3.247.198-6.414-.04-9.304-1.744-.673-.396-.08-1.426.594-1.03 2.97 1.783 6.295 1.783 9.66 1.506 3.603-.278 7.206-.714 10.73-1.467 5.503-1.188 11.402-2.892 15.321-7.172.515-.555 1.346.278.832.832z"
      ></path>
      <path
        fill="#111827"
        d="M56.81 363.226c-1.545-7.093-3.604-14.107-4.831-21.239-.119-.753 1.03-1.07 1.148-.317 1.227 7.132 3.286 14.146 4.83 21.239.159.753-.95 1.07-1.148.317z"
      ></path>
      <path
        fill="#0EA5E9"
        d="M78.385 350.863c-2.81 3.566-5.978 6.855-8.868 10.342-.475.594-1.306-.238-.831-.832 2.89-3.487 6.057-6.776 8.868-10.342.475-.634 1.307.237.831.832zM74.15 351.576a146.26 146.26 0 00-4.038 5.666c-.436.634-1.465.04-1.03-.594 1.307-1.902 2.693-3.804 4.039-5.666.475-.595 1.504 0 1.03.594zM82.464 332.794a98.825 98.825 0 01-11.64 3.13c-3.84.753-7.76 1.11-11.521 2.061-.752.198-1.07-.951-.317-1.15 3.8-.99 7.72-1.307 11.521-2.06 3.96-.793 7.84-1.862 11.64-3.13.752-.238 1.03.911.317 1.149z"
      ></path>
      <path
        fill="#16A34A"
        d="M64.805 333.269c-1.385-3.408-2.81-6.617-4.671-9.787-1.822-3.091-3.88-6.063-5.82-9.035-.436-.634.594-1.228 1.03-.594 2.097 3.209 4.275 6.34 6.215 9.668 1.782 3.051 3.128 6.182 4.434 9.471.238.673-.91.99-1.188.277z"
      ></path>
      <path
        fill="#498361"
        d="M60.807 325.265c-1.98-2.417-4.672-3.962-7.127-5.785-.593-.436 0-1.466.594-1.03 2.534 1.862 5.345 3.487 7.364 5.943.476.634-.356 1.467-.831.872z"
      ></path>
      <path
        fill="#16A34A"
        d="M71.972 331.565c3.643-7.211 5.504-15.176 6.454-23.181.079-.752 1.267-.752 1.187 0-.99 8.203-2.89 16.366-6.651 23.776-.317.673-1.346.079-.99-.595z"
      ></path>
      <path
        fill="#498361"
        d="M76.565 319.718c1.306-.634 2.138-1.863 3.009-3.012.475-.595 1.504 0 1.03.594-.99 1.268-1.94 2.695-3.445 3.448-.673.357-1.267-.674-.594-1.03z"
      ></path>
      <path
        fill="#16A34A"
        d="M67.103 302.599c.594-2.338 1.109-4.715 2.138-6.935.317-.673 1.346-.079 1.03.595-.99 2.1-1.426 4.398-2.02 6.657-.198.753-1.346.436-1.148-.317z"
      ></path>
      <path
        fill="#EAB308"
        d="M57.64 287.74c1.742 2.536 2.059 6.063.554 8.797-1.504 2.694-3.84 3.011-6.374 1.545-.673-.396-.08-1.426.594-1.03 1.069.634 2.138 1.189 3.365.515 1.069-.594 1.742-2.1 1.98-3.21.475-2.1.04-4.24-1.148-5.983-.436-.634.593-1.229 1.029-.634z"
      ></path>
      <path
        fill="#EAB308"
        d="M65.637 282.469c.832 2.021-.356 4.359-2.138 5.389-1.148.674-2.613.634-3.88.793-1.108.118-2.058.158-3.048-.357-.673-.357-.08-1.387.594-1.03 1.227.594 3.405.158 4.711-.119 1.9-.436 3.405-2.417 2.613-4.399-.277-.673.871-.99 1.148-.277zM55.028 284.173c.475-2.932-.278-5.785-1.663-8.361-.753-1.387-4.316-6.34-6.098-3.804-.435.634-1.464.04-1.029-.594 1.861-2.655 5.226-.238 6.73 1.624 2.535 3.131 3.841 7.49 3.208 11.492-.12.713-1.267.396-1.148-.357zM51.266 284.65c-1.504-1.784-3.602-2.775-5.82-3.448-2.296-.714-5.86-.397-5.265 2.972.119.753-1.03 1.07-1.148.317-.476-2.655 1.385-4.795 4.078-4.914 3.088-.119 7.047 1.902 8.987 4.201.514.594-.317 1.427-.832.872z"
      ></path>
      <path
        fill="#fff"
        d="M83.81 340.044c-.752 0-.752-1.188 0-1.188s.752 1.188 0 1.188zM87.61 352.566c-.752 0-.752-1.188 0-1.188.753 0 .753 1.188 0 1.188zM74.903 344.443c-.753 0-.753-1.188 0-1.188.752 0 .752 1.188 0 1.188z"
      ></path>
      <path
        fill="#FBBF24"
        d="M215.65 213.64c-3.365-1.981-6.691-4.319-10.254-5.944-.713-.317-.079-1.347.594-1.03 3.563 1.624 6.889 3.962 10.254 5.944.673.396.079 1.426-.594 1.03zM198.269 203.615c-3.722-1.863-7.364-3.725-11.284-5.151-3.84-1.387-7.68-2.695-11.64-3.725-4.038-1.07-8.155-1.902-12.352-1.982a28.049 28.049 0 00-6.295.595c-2.178.475-3.761 1.149-5.543 2.496-.594.476-1.188-.555-.594-1.03 6.533-4.953 16.193-3.487 23.636-1.664 4.316 1.07 8.552 2.496 12.749 4.002 4.157 1.466 7.958 3.408 11.917 5.389.713.396.119 1.387-.594 1.07zM154.481 256.911c-3.088 2.139-6.889 4.081-9.304 7.013-.475.595-1.307-.237-.831-.832 2.494-3.011 6.413-4.993 9.581-7.172.594-.475 1.187.555.554.991zM139.08 269.393c-1.861 1.862-3.999 3.408-6.018 5.151-2.019 1.744-3.801 3.804-5.503 5.865-3.445 4.161-6.652 8.559-9.225 13.274-2.019 3.686-4.236 7.926-4.355 12.205-.079 3.051.515 7.846 4.197 8.559.752.159.435 1.308-.317 1.149-3.366-.634-4.593-4.2-4.949-7.211-.515-4.201.831-7.807 2.534-11.611 2.454-5.428 5.78-10.382 9.462-15.018 1.9-2.377 3.84-4.794 6.058-6.895 2.296-2.258 4.988-4.041 7.284-6.3.515-.555 1.386.317.832.832z"
      ></path>
      <path
        fill="#fff"
        d="M185.6 215.027c-2.415 3.051-3.959 6.657-6.295 9.748-.435.594-1.504 0-1.029-.595 2.415-3.17 3.999-6.894 6.493-9.985.475-.595 1.306.237.831.832zM180.097 213.838c-2.495 3.13-3.682 7.053-5.979 10.302-.435.634-1.465.04-1.029-.594 2.375-3.328 3.603-7.331 6.176-10.54.436-.634 1.307.237.832.832zM142.247 290.514c1.9 2.139 3.761 4.438 4.79 7.132.277.713-.871 1.03-1.148.317-.99-2.496-2.732-4.636-4.513-6.617-.475-.555.356-1.387.871-.832zM139.635 295.07a50.647 50.647 0 014.275 6.974c.357.674-.673 1.268-1.029.595a46.283 46.283 0 00-4.276-6.974c-.475-.634.554-1.229 1.03-.595z"
      ></path>
      <path
        fill="#fff"
        d="M192.054 221.248c-3.722-4.042-7.919-7.727-13.422-9.035-4.236-.99-9.185-.515-10.413 4.359-.198.753-1.346.436-1.148-.317 1.228-4.795 5.622-6.142 10.136-5.508 6.414.912 11.442 4.993 15.678 9.669.515.555-.317 1.387-.831.832zM146.959 285.362c-3.722 2.377-6.572 6.895-8.592 10.778-2.217 4.28-1.86 9.471 1.94 12.68.594.476-.237 1.348-.831.832-3.88-3.249-4.553-8.479-2.653-13.036.99-2.378 2.613-4.676 4.118-6.776 1.504-2.1 3.167-4.121 5.384-5.548.673-.357 1.267.674.634 1.07zM210.543 233.374c-.95-1.784-2.177-3.448-3.009-5.31-.752-1.704-1.148-3.606-1.504-5.429-.673-3.685-.752-7.37 1.029-10.778.357-.674 1.386-.079 1.03.594-1.822 3.487-1.465 7.41-.634 11.135.792 3.487 2.455 6.102 4.118 9.193.356.674-.673 1.268-1.03.595zM161.133 266.184c-4.197 3.408-9.225 1.585-13.501-.674-.673-.357-.079-1.387.594-1.03 3.721 1.981 8.354 3.923 12.075.872.594-.476 1.425.356.832.832zM157.253 197.394c-2.93-.991-5.701 2.377-5.622 5.032.079 2.298 1.386 4.438 2.613 6.3.436.634-.594 1.229-1.029.595-1.703-2.576-3.524-5.865-2.495-9.035.832-2.575 4.078-4.953 6.81-4.042.752.238.436 1.387-.277 1.15zM123.758 313.734c-6.533.198-6.928-7.053-4.078-11.373.436-.634 1.465-.039 1.03.595-2.336 3.526-2.614 9.748 3.048 9.589.752 0 .752 1.189 0 1.189z"
      ></path>
      <path
        fill="#111827"
        d="M277.729 196.561c-1.504 1.704-2.652 3.646-4.157 5.35-.515.554-1.346-.278-.831-.832 1.504-1.665 2.652-3.646 4.157-5.35.475-.594 1.306.277.831.832zM274.919 193.312c-1.188 1.268-2.02 2.814-2.93 4.28-.396.635-1.426.04-1.03-.594.99-1.546 1.861-3.171 3.089-4.518.554-.555 1.385.277.871.832zM467.373 342.304c-4.157-4.755-8.116-9.788-11.917-14.82-3.92-5.191-7.641-10.541-12.234-15.177-.554-.555.317-1.387.831-.832 4.355 4.359 7.919 9.391 11.561 14.305 3.999 5.349 8.196 10.659 12.59 15.691.515.555-.316 1.387-.831.833z"
      ></path>
      <path
        fill="#111827"
        d="M455.417 319.599c-1.109 2.417-2.692 4.557-3.88 6.934-.357.674-1.346.079-1.03-.594 1.188-2.378 2.732-4.518 3.88-6.935.317-.713 1.346-.079 1.03.595zM450.982 317.379c-.911 2.417-2.257 4.636-3.445 6.895-.356.674-1.386.079-1.029-.594 1.148-2.18 2.454-4.319 3.325-6.618.238-.713 1.386-.436 1.149.317z"
      ></path>
      <path
        fill="#fff"
        d="M473.47 155.668c.238.634-1.979 11.65-1.979 11.65l8.749-3.051-6.77-8.599zM540.894 306.72c.911-.198 15.164 4.755 15.164 4.755l-2.495-12.086-12.669 7.331zM331.218 144.85l-16.629-8.599 9.106 15.256 7.523-6.657zM129.301 227.271c.633.277 17.341 11.452 17.341 11.452h-18.213l.872-11.452z"
      ></path>
      <path
        fill="#fff"
        d="M327.693 94.962S217.708 34.216 118.452 35.88c0 0 132.394 42.756 185.091 93.12 0 0-30.605-38.635-49.094-50.84 0 0 33.257-.99 73.244 16.802z"
        opacity="0.1"
      ></path>
      <path
        fill="#fff"
        d="M100.755 28.827c-.594-.08-.99.594-.633 1.07 2.692 4.041 6.809 12.64 6.77 16.008-.04 3.567-.555 7.252-1.821 10.58-.278.714.593 1.268 1.148.753 2.217-2.18 4.711-4.002 7.997-4.834 6.929-1.664 14.095 2.813 18.806 7.925.317.317.832 0 .713-.396-.634-1.942-.871-4.082-.911-5.944-.198-11.293 6.612-20.843 14.926-27.777h.04c.554-.476.079-1.387-.634-1.19-3.84 1.11-7.641 2.061-11.719.833-3.959-1.229-7.205-4.28-9.027-7.965-.95-1.862-1.583-3.923-2.098-5.944v-.04c-.277-1.03-1.742-.91-1.861.12-.356 3.962-.99 7.964-2.415 10.54-3.919 7.053-13.342 6.934-19.281 6.26z"
        opacity="0.2"
      ></path>
      <path
        fill="#fff"
        d="M522.484 208.568c.198.396.357 1.149.713 1.427 1.742 1.505 1.98-.951 2.059-1.586.158-1.386.119-2.853.039-4.279-.158-3.447-.871-6.895-2.177-10.065-1.069-2.615-4.751-11.65-8.512-7.37-1.703 1.902-1.307 5.191-1.069 7.568.237 2.734.594 6.103 2.533 8.203 1.267 1.387 3.168 1.981 4.435.277.752-1.03.831-2.298.871-3.527.039-1.109.079-2.456-.396-3.487-.356-.792-.99-1.149-1.425-.119-.159.397-.08 1.031-.08 1.467 0 .752-1.187.752-1.187 0 0-1.467.277-4.042 2.375-3.329 2.217.793 2.019 4.557 1.861 6.419-.198 2.259-1.386 4.993-4.038 4.874-3.049-.119-4.751-3.526-5.424-6.062-.951-3.686-2.693-14.266 3.484-14.583 2.335-.118 4.038 2.219 5.107 4.003 1.623 2.655 2.89 5.706 3.722 8.717.633 2.299.989 4.676 1.108 7.093.079 1.823.277 3.963-.277 5.746-.317 1.07-1.109 2.021-2.336 1.902-1.386-.119-1.861-1.545-2.375-2.655-.357-.753.633-1.347.989-.634z"
      ></path>
      <path
        fill="#FBBF24"
        d="M85.71 238.683c1.703 2.06 4.118 4.438 4.039 7.331-.08 2.179-1.663 3.724-3.88 3.487-4.79-.476-9.106-5.627-9.78-10.184-.791-5.27 4.039-8.757 8.75-6.419 5.029 2.536 7.76 7.925 8.869 13.195.633 2.972 1.069 6.736-1.623 8.836-3.049 2.378-6.295.357-8.83-1.704-.593-.475.238-1.307.832-.832 1.386 1.15 3.088 2.576 5.028 2.497 2.336-.119 3.722-2.18 3.84-4.319.159-3.012-.752-6.103-1.86-8.877-1.425-3.566-5.385-8.519-9.66-8.44-3.287.079-4.752 3.606-4.118 6.459.554 2.457 2.138 4.835 4.078 6.42 1.386 1.109 4.236 3.011 6.057 1.981 3.445-1.981-1.227-6.895-2.573-8.559-.515-.634.317-1.466.831-.872z"
      ></path>
      <path
        fill="#111827"
        d="M705.951 235.672c.594.594 1.03 1.664.753 2.497-.238.832-1.307 1.268-2.138.99-1.346-.436-.555-2.457.475-2.774.95-.277 1.227.793 1.188 1.506 0 .198-.119.436-.278.515-.396.159-.712.199-1.108-.039-.673-.357-.079-1.387.594-1.031-.04 0-.08 0-.08.04-.079.158-.197.357-.277.515v-.436c0-.039-.039-.079-.039-.079.039 0 .158.158.277.158.079 0 0-.039.119 0 .118.04 0-.079 0 0-.159.159-.159.159-.277.318-.08.118 0 0-.08.158 0 .04-.039.079-.039.119.079-.079 0 .04 0 0s-.04.04 0 0c-.119-.119-.159-.04-.04-.079-.079 0 .159 0 .198-.04.119 0 .277-.04.356-.119.317-.357-.158-1.149-.435-1.387-.554-.555.317-1.387.831-.832z"
      ></path>
      <path
        fill="#fff"
        d="M706.15 237.098c-.673 6.697.554 13.632 2.138 20.13 1.86 7.608 4.592 15.177 8.631 21.953 3.009 4.992 8.037 11.927 14.451 12.482 4.988.436 6.809-5.271 7.205-9.233.515-5.112-.356-10.897-3.207-15.216-1.267-1.942-3.127-3.646-5.503-4.002-4.87-.753-8.156 3.922-9.462 7.964-2.97 9.114-3.524 18.822-1.544 28.214 1.94 9.153 5.978 17.712 10.848 25.637 9.818 15.969 22.963 29.323 34.088 44.262 11.838 15.929 20.073 34.91 21.855 54.802 1.821 20.05-3.484 40.259-15.283 56.664-10.927 15.217-28.031 26.629-47.391 23.776-17.776-2.616-31.95-15.692-44.065-28.016-13.857-14.067-27.437-29.996-46.441-37.049-4.909-1.823-10.017-2.893-15.243-3.091-.752-.04-.752-1.229 0-1.189 21.3.832 38.404 15.692 52.538 30.195 12.947 13.274 26.051 28.649 43.828 35.425 9.264 3.527 19.439 4.002 28.823.753 9.937-3.448 18.331-10.501 24.784-18.624 13.501-16.96 19.4-38.912 17.064-60.389-2.296-21.319-12.036-40.894-25.299-57.497-11.996-14.978-25.418-29.283-34.286-46.441-4.158-8.004-7.206-16.643-7.998-25.677a54.393 54.393 0 01.554-14.107c.753-4.398 1.703-9.55 4.553-13.116 3.762-4.755 9.938-4.953 13.739-.317 3.207 3.963 4.355 9.589 4.355 14.582 0 4.121-.871 9.748-4.791 12.046-4.474 2.616-10.016-1.268-13.105-4.319-5.265-5.151-8.71-12.086-11.323-18.901-2.811-7.291-4.751-15.018-5.582-22.825-.317-2.932-.436-5.943-.159-8.876.119-.753 1.307-.753 1.228 0z"
      ></path>
      <path
        fill="#fff"
        d="M569.875 419.415c5.622 22.191 14.372 43.668 27.239 62.648 4.632 6.816 9.66 13.473 15.164 19.615 5.74 6.419 12.194 12.561 19.914 16.563 7.364 3.804 15.876 4.835 23.32.634 9.462-5.31 12.313-17.276 10.491-27.341-1.979-10.858-8.155-21.002-14.807-29.68-6.493-8.48-14.451-15.969-23.676-21.437-18.845-11.214-42.956-13.235-62.238-1.942-15.48 9.074-24.586 24.964-33.811 39.784-4.751 7.608-9.62 15.256-15.718 21.913-6.651 7.251-14.53 13.393-23.161 18.148-17.341 9.59-37.493 13.592-57.13 10.818-20.786-2.932-40.621-12.957-55.864-27.341-15.639-14.741-23.201-34.91-33.692-53.178-2.415-4.24-5.82-9.232-11.205-9.272-.752 0-.752-1.189 0-1.189 4.474.04 7.76 3.131 10.175 6.618 3.088 4.358 5.464 9.351 7.919 14.106 4.988 9.669 9.739 19.496 15.955 28.451 12.867 18.466 32.98 31.978 54.557 38.08 21.023 5.905 43.472 4.003 63.228-5.27 9.462-4.438 18.212-10.5 25.616-17.871 6.928-6.934 12.392-15.097 17.539-23.379 9.264-14.82 18.172-30.789 33.336-40.378 18.291-11.571 41.531-11.095 60.535-1.546 9.423 4.755 17.777 11.571 24.666 19.536 6.968 8.004 13.144 17.395 16.787 27.421 3.484 9.51 3.998 20.565-1.822 29.283-4.592 6.855-12.748 10.461-20.904 9.55-7.958-.912-15.045-5.429-21.063-10.501-6.691-5.627-12.431-12.284-17.697-19.179-13.144-17.118-23.161-36.138-30.05-56.625a243.544 243.544 0 01-4.87-16.682c-.079-.793 1.069-1.11 1.267-.357z"
      ></path>
      <path
        fill="#111827"
        d="M335.652 438.277c.357.674.238 1.546-.435 1.982-.317.198-.713.238-1.03.039-.356-.198-.514-.594-.554-.951-.079-.674.158-1.664.99-1.664.554 0 1.069.515 1.188 1.07.079.356-.04.753-.317 1.03-.159.159-.357.238-.594.278-.238.039-.475.039-.673-.119-.079-.08-.158-.159-.198-.278-.04-.079-.079-.317 0-.158-.079-.317.119-.674.396-.714.317-.079.633.08.713.397a.362.362 0 01.039.198v-.079c-.039-.08-.119-.159-.158-.278l.039.04c-.198-.04-.396-.119-.594-.159.04 0 .119-.039.159-.039h.039c.08 0-.118.039-.039.039.079-.039.039-.039 0 .04l.039-.04c.04-.079-.079.119-.039.04.079-.079 0 0 0 .04.039-.119-.04-.04 0 .039v-.079c-.04.158.039.079 0 .04l-.04-.08s.119.119.04.08l-.04-.04s-.079-.04-.079-.079c0 0 .119.118.04.039-.08-.079 0 .04.039 0 0 0-.198-.039-.039 0h.039c-.039 0 .119-.039.119 0-.119.04.119-.079.04-.039-.08.039.118-.119.039-.04.079-.119-.079.079 0 0 .04-.119-.039.079 0 0 0 .04 0 .119-.039.159-.04.039 0-.04 0-.04v.317c0 .079.039.158 0 .04 0 .039 0 .118.039.158 0 0-.039-.119-.039-.079 0 0 0 .039.039.039.04.04-.079-.079-.039-.079.039.04.118.079-.04-.039.079.079-.079-.04-.04 0 .119.039-.158 0-.039 0 .079 0-.159.039-.04 0 .119-.04-.079.079-.039 0l.039-.04c.079-.04-.079.079-.039.04 0-.04.039-.08.079-.08.039-.039-.079.119-.04.04 0-.04.04-.04.04-.079.079-.119 0 .079 0 0 0-.04.039-.199.039-.08v-.079.04-.079c0-.04 0-.04-.039-.08.039.079.039.079 0 0a.634.634 0 01.198-.832c.277-.159.673-.079.831.198z"
      ></path>
      <path
        fill="#fff"
        d="M268.426 106.176c-1.346-1.981-3.365-3.329-5.345-4.636-2.098-1.348-4.117-2.774-6.176-4.2-4.434-3.052-9.027-5.865-13.699-8.48-9.541-5.35-19.321-10.184-29.179-14.9-19.677-9.39-39.869-17.712-60.615-24.33-11.719-3.724-23.636-6.934-35.672-9.51-.752-.158-.435-1.307.317-1.149C161.37 48.243 203.1 65.481 241.9 86.759c5.582 3.052 11.046 6.3 16.232 9.946 3.761 2.655 8.671 4.914 11.323 8.797.436.713-.594 1.308-1.029.674z"
      ></path>
      <path
        fill="#fff"
        d="M304.41 115.369c-4.988-5.587-17.143-16.96-22.884-21.754-6.414-5.35-14.886-10.184-26.526-15.613 4.038-.119 21.617 4.636 25.299 5.944 17.697 6.182 36.226 9.708 51.152 20.962l-27.041 10.461z"
        opacity="0.1"
      ></path>
      <path
        fill="#fff"
        d="M57.007 185.903c-.475-.753-.91-1.586-1.425-2.339-.436-.634.594-1.228 1.03-.594.514.753.91 1.585 1.424 2.338.436.634-.593 1.229-1.029.595zM55.7 188.24c-.475-.356-1.069-.515-1.623-.634-.752-.158-.435-1.307.317-1.149.791.198 1.504.436 2.138.951.237.198.198.634 0 .832-.238.238-.555.198-.832 0zM44.694 132.448c-.357.515-.674 1.03-.95 1.545-.357.674-1.386.08-1.03-.594.277-.555.594-1.07.95-1.546.198-.277.515-.396.832-.198.237.119.356.515.197.793zM46.594 140.848c-.871-.238-1.703-.555-2.613-.634-.752-.04-.752-1.228 0-1.189 1.03.08 1.94.397 2.93.674.752.198.435 1.347-.317 1.149zM102.379 22.646c-.594-1.07-1.108-2.18-1.623-3.25-.317-.674.713-1.308 1.029-.594.515 1.11 1.03 2.22 1.624 3.25.356.673-.674 1.268-1.03.594zM101.388 24.944c-.791-.436-1.623-.833-2.375-1.348-.634-.396-.04-1.427.594-1.03.752.475 1.583.911 2.375 1.347.673.357.079 1.387-.594 1.03z"
      ></path>
      <path
        fill="#EAB308"
        d="M184.452 233.453c-3.128-1.427-7.483-2.338-10.928-2.338-.752 0-.752-1.189 0-1.189 3.722.039 8.117.991 11.521 2.497.713.317.119 1.347-.593 1.03z"
      ></path>
      <path
        fill="#EAB308"
        d="M174.158 230.718c-1.266 1.902-1.464 4.32-1.9 6.499-.158.753-1.306.436-1.148-.317.435-2.298.673-4.795 2.019-6.776.436-.674 1.465-.079 1.029.594z"
      ></path>
      <path
        fill="#0EA5E9"
        d="M200.091 237.059c-2.218-2.14-5.504-3.844-8.275-5.191-3.128-1.546-6.651-3.051-10.175-3.368-.752-.08-.752-1.268 0-1.189 3.524.317 6.928 1.704 10.096 3.21 3.088 1.466 6.691 3.288 9.145 5.706.594.515-.277 1.387-.791.832z"
      ></path>
      <path
        fill="#FCC9BF"
        d="M400.107 167.516c-.039-3.408-.475-6.657-1.781-9.827-.278-.713.871-1.03 1.148-.317 1.346 3.289 1.781 6.617 1.821 10.144 0 .753-1.188.753-1.188 0z"
      ></path>
      <path
        fill="#fff"
        d="M445.123 171.637c-.119.277-.238.554-.317.832-.119.317-.396.515-.712.396-.278-.079-.555-.436-.396-.713.118-.278.237-.555.316-.832.119-.317.396-.515.713-.396.238.039.515.396.396.713zM441.085 178.294l-1.861 1.863c-.554.555-1.386-.317-.831-.832l1.86-1.863c.555-.555 1.386.277.832.832zM388.823 166.524c-.752 0-.752-1.188 0-1.188s.792 1.188 0 1.188zM385.141 177.778c-.752 0-.752-1.188 0-1.188s.752 1.188 0 1.188zM378.094 165.177c-.752 0-.752-1.188 0-1.188s.752 1.188 0 1.188zM416.696 151.151c-.95-1.03-1.782-2.14-2.771-3.131-.555-.555.316-1.387.831-.832.99.991 1.861 2.1 2.771 3.131.515.555-.316 1.427-.831.832z"
      ></path>
      <path
        fill="#E28778"
        d="M481.547 386.011c.712-1.625-1.03-3.051-2.297-3.804-.752-.436-1.583-.674-2.138.158-.316.476-.475 1.07-.673 1.585-.277.713-1.425.396-1.148-.317.792-1.981 1.782-3.962 4.237-2.655 2.058 1.11 4.117 3.21 3.048 5.627-.317.713-1.306.119-1.029-.594z"
      ></path>
      <path
        fill="#0284C7"
        d="M254.132 175.877c-4.355 2.615-9.462 3.843-14.451 4.438-5.107.634-10.65.634-15.519-1.149-.713-.278-.396-1.427.316-1.15 4.633 1.704 9.779 1.704 14.649 1.189 4.949-.555 10.096-1.783 14.451-4.359.634-.396 1.227.634.554 1.031zM256.944 153.687c-.515 1.03-.911 2.1-1.426 3.13-.514 1.11-1.187 2.179-1.623 3.329-.277.713-1.425.396-1.148-.317.435-1.11.99-2.14 1.544-3.21.594-1.149 1.029-2.378 1.623-3.527.357-.713 1.386-.079 1.03.595z"
      ></path>
      <path
        fill="#0284C7"
        d="M252.747 151.507c.119 1.902.396 3.804.515 5.706.118 1.902-.119 3.765-.119 5.667 0 .752-1.188.752-1.188 0 0-1.902.238-3.765.119-5.667-.119-1.902-.396-3.804-.515-5.706-.039-.753 1.148-.753 1.188 0z"
      ></path>
      <path
        fill="#fff"
        d="M678.079 236.94c-2.296-3.17-4.83-6.142-7.047-9.352-.436-.634.594-1.228 1.029-.594 2.217 3.209 4.751 6.181 7.048 9.351.435.634-.594 1.229-1.03.595zM681.088 233.096c-1.425-2.021-2.89-4.042-4.276-6.102-.435-.634.594-1.229 1.03-.595 1.385 2.061 2.85 4.082 4.275 6.103.436.634-.593 1.228-1.029.594z"
      ></path>
      <path
        fill="#fff"
        d="M680.534 236.742c-.99.634-1.98 1.268-3.009 1.862-.673.397-1.267-.634-.594-1.03.99-.595 2.019-1.229 3.009-1.863.673-.396 1.267.634.594 1.031z"
      ></path>
      <path
        fill="#0EA5E9"
        d="M688.453 227.033l-.792-4.042 4.197-2.456.791 4.794-4.196 1.704z"
      ></path>
      <path
        fill="#0EA5E9"
        d="M691.857 220.535l3.009 2.695s-.712 1.466-2.217 2.1l-.792-4.795z"
      ></path>
      <path
        fill="#fff"
        d="M687.502 226.796c-.119-.912-.515-1.784-.713-2.695-.198-.832-.277-1.664-.356-2.496-.079-.753 1.108-.753 1.188 0 .158 1.783.871 3.407 1.069 5.191.079.753-1.109.753-1.188 0zM675.427 164.069c0 1.347-.95 2.853-2.415 2.893-1.148.04-1.94-.832-1.94-1.942.039-1.07.633-2.14 1.623-2.576 1.346-.634 2.574.198 2.732 1.625.079.753-1.109.753-1.188 0-.079-.753-.792-.793-1.306-.396-.396.317-.673.871-.673 1.347s.198.753.673.753c.791 0 1.306-1.03 1.306-1.704-.039-.753 1.148-.753 1.188 0zM627.52 151.666c-.395-1.308-1.464-2.378-2.533-3.17-.594-.436 0-1.467.593-1.031 1.307.991 2.574 2.259 3.049 3.884.277.714-.871 1.031-1.109.317zM623.007 156.935c-.752 0-.752-1.188 0-1.188s.752 1.188 0 1.188zM624.987 167.039c-.753 0-.753-1.187 0-1.187.752 0 .752 1.187 0 1.187zM619.127 164.662c-.752 0-.752-1.188 0-1.188.792 0 .792 1.188 0 1.188z"
      ></path>
      <path
        fill="#111827"
        d="M614.139 171.003c-5.741-3.804-13.026-6.142-19.915-5.904-.752.039-.752-1.15 0-1.189 7.127-.238 14.61 2.14 20.548 6.063.634.435.04 1.466-.633 1.03z"
      ></path>
      <path
        fill="#fff"
        d="M610.456 172.43c-.277.634-.712 1.228-1.346 1.506a.634.634 0 01-.831-.198c-.159-.278-.079-.674.198-.833.475-.238.712-.634.91-1.109.119-.278.555-.357.832-.199.356.199.396.555.237.833zM607.369 175.005c-1.306 1.426-3.603 1.307-5.265.673-.713-.277-.396-1.426.316-1.149 1.267.476 3.088.753 4.118-.356.515-.594 1.346.277.831.832z"
      ></path>
      <path
        fill="#0EA5E9"
        d="M615.327 146c-2.97-1.705-6.414-2.061-9.779-2.458-.753-.079-.753-1.268 0-1.189 3.563.397 7.205.793 10.373 2.616.673.396.039 1.427-.594 1.031zM617.98 136.371c-1.703-1.506-3.445-3.012-5.424-4.201-.673-.396-.079-1.426.594-1.03 2.058 1.229 3.88 2.814 5.661 4.36.594.515-.237 1.347-.831.871zM614.733 136.529c-1.069-.832-1.98-1.862-3.088-2.655-.634-.436-.04-1.466.594-1.03 1.108.753 2.019 1.823 3.088 2.655.633.436.039 1.466-.594 1.03z"
      ></path>
      <path
        fill="#111827"
        d="M675.308 216.097c3.564-2.259 5.543-6.499 5.068-10.699-.594-5.033-4.83-7.925-9.225-9.55-4.117-1.506-8.512-1.981-12.669-3.328-3.603-1.189-7.008-3.091-9.858-5.627-2.811-2.457-5.187-5.627-6.098-9.312-.95-3.844 0-7.608 1.742-11.095 2.059-4.003 4.989-7.529 6.691-11.769 2.02-5.151.99-10.342-1.979-14.86-2.93-4.477-7.523-7.925-12.234-10.302-4.83-2.457-10.531-4.042-15.876-2.417-.752.237-1.029-.912-.317-1.15 8.829-2.694 18.727 2.457 25.141 8.282 3.523 3.21 6.414 7.37 7.324 12.086.911 4.715-.712 9.034-3.088 13.076-2.534 4.319-6.176 8.678-6.572 13.909-.396 4.953 2.375 9.351 5.939 12.561 3.484 3.131 7.72 5.151 12.273 6.221 4.593 1.11 9.383 1.902 13.54 4.24 3.88 2.18 6.573 5.706 6.612 10.263a12.29 12.29 0 01-5.741 10.501c-.712.436-1.306-.594-.673-1.03z"
      ></path>
      <path
        fill="#FBBF24"
        d="M665.287 219.158a6.098 6.098 0 1111.873-2.787 6.103 6.103 0 01-4.544 7.335 6.098 6.098 0 01-7.329-4.548z"
      ></path>
      <path
        fill="#fff"
        d="M673.407 217.246c0 1.348-.95 2.854-2.415 2.893-1.148.04-1.94-.832-1.94-1.942.04-1.07.634-2.14 1.624-2.576 1.346-.634 2.573.198 2.731 1.625.08.753-1.108.753-1.187 0-.08-.753-.792-.792-1.307-.396-.396.317-.673.872-.673 1.347 0 .476.198.753.673.753.792 0 1.307-1.03 1.307-1.704-.04-.753 1.148-.753 1.187 0zM87.374 167.279a2.297 2.297 0 01-2.297-2.299 2.297 2.297 0 112.297 2.299zM8.546 373.727a2.299 2.299 0 002.296 2.299 2.299 2.299 0 000-4.597 2.299 2.299 0 00-2.296 2.298zM32.103 171.241c0 1.11.91 2.061 2.059 2.061a2.046 2.046 0 002.059-2.061 2.07 2.07 0 00-2.059-2.061 2.071 2.071 0 00-2.059 2.061zM161.014 13.69a1.386 1.386 0 110-2.772 1.386 1.386 0 010 2.772z"
      ></path>
      <path
        fill="#0EA5E9"
        d="M646.842 378.284c-5.305-9.035-11.244-17.634-17.579-25.995-.475-.594.555-1.188 1.03-.594 6.334 8.361 12.234 16.96 17.578 25.994.357.634-.673 1.268-1.029.595zM643.318 382.128c-2.099-5.588-5.464-11.175-8.948-16.009-3.405-4.716-7.562-8.797-10.531-13.79-.396-.673.633-1.268 1.029-.594 3.088 5.191 7.483 9.391 10.927 14.344 3.366 4.835 6.612 10.224 8.671 15.771.237.674-.911.991-1.148.278z"
      ></path>
      <path
        fill="#111827"
        d="M612.793 394.015l-12.551-14.265-3.088 8.044 13.501 11.848 2.138-5.627zM690.353 336.479l-5.187 7.569-25.101-2.14 5.384-6.776 24.904 1.347z"
      ></path>
      <path
        fill="#0EA5E9"
        d="M680.891 342.066c-.357.872-.832 1.625-1.148 2.497-.238.714-1.386.397-1.149-.317.317-.872.792-1.664 1.149-2.497.277-.713 1.425-.396 1.148.317zM678.317 341.63c-.633 1.427-1.108 2.933-1.94 4.241-.396.634-1.425.04-1.029-.594.831-1.348 1.306-2.814 1.94-4.241.317-.713 1.346-.119 1.029.594zM602.38 378.561c-1.861 4.795-2.296 10.025-4.395 14.741-.316.713-1.346.079-1.029-.595 2.059-4.636 2.455-9.748 4.276-14.463.277-.713 1.425-.396 1.148.317zM613.03 390.687c-2.098 2.694-3.048 6.023-4.276 9.153-.277.713-1.425.396-1.148-.317 1.307-3.329 2.376-6.816 4.593-9.669.435-.634 1.306.238.831.833z"
      ></path>
      <path
        fill="#111827"
        d="M573.399 420.168c-2.178 3.25-7.483 2.378-8.235-1.585-.159-.753.989-1.07 1.148-.317.554 2.854 4.394 3.765 6.057 1.308.436-.634 1.465-.04 1.03.594z"
      ></path>
      <path
        fill="#111827"
        d="M571.855 420.485c-2.058.872-4.196.634-5.78-1.03-.515-.555.317-1.387.831-.833 1.188 1.229 2.772 1.546 4.316.872.752-.317 1.346.714.633.991zM619.207 319.44c-2.93 3.368-5.424 7.252-8.037 10.857a4824.626 4824.626 0 00-16.668 23.102 9428.892 9428.892 0 00-37.018 51.711c-3.168 4.438-6.454 8.797-9.423 13.354-.396.634-1.426.04-1.03-.594 2.455-3.804 5.226-7.45 7.879-11.175a8365.653 8365.653 0 0116.549-23.18c12.353-17.277 24.745-34.554 37.216-51.751 3.168-4.359 6.137-9.075 9.74-13.156.475-.594 1.306.277.792.832zM720.759 320.232c-2.731 2.933-5.186 6.975-7.601 10.343-5.701 7.846-11.402 15.731-17.104 23.577a16217.613 16217.613 0 00-38.126 52.94c-3.009 4.2-6.493 8.321-9.067 12.799-.396.673-1.425.079-1.029-.595 2.138-3.685 5.028-7.132 7.522-10.58 5.662-7.885 11.323-15.771 17.025-23.656a16204.599 16204.599 0 0138.364-53.098c2.138-2.933 4.276-5.905 6.453-8.837.911-1.228 1.742-2.576 2.772-3.685.475-.634 1.306.238.791.792z"
      ></path>
      <path
        fill="#111827"
        d="M687.977 320.192c-20.31-.039-40.581-.317-60.891-.475-2.772-.04-5.543-.04-8.315-.079-.752 0-.752-1.189 0-1.189l59.863.476c3.128.039 6.216.079 9.343.079.792 0 .792 1.188 0 1.188zM649.098 365.485c-3.682 7.37-10.769 14.424-19.796 12.046-3.405-.911-5.74-3.606-6.176-7.132-.554-4.478 1.465-8.401 4.276-11.73 2.653-3.17 6.691-6.855 11.125-6.696.752.039.752 1.228 0 1.188-4.553-.158-8.75 4.201-11.283 7.569-2.772 3.725-4.751 9.827-1.109 13.671 2.771 2.892 7.562 2.655 11.086 1.506 5.186-1.704 8.472-6.38 10.808-11.056.396-.674 1.425-.079 1.069.634z"
      ></path>
      <path
        fill="#fff"
        d="M702.27 230.441c-4.949 7.172-12.234 12.522-19.598 17.039-.673.396-1.267-.634-.594-1.03 7.166-4.399 14.332-9.59 19.162-16.603.436-.634 1.465-.04 1.03.594zM701.002 242.289c-2.969 4.517-8.274 8.401-13.065 10.818-.673.357-1.267-.674-.594-1.03 4.593-2.338 9.74-6.023 12.63-10.382.435-.674 1.465-.079 1.029.594z"
      ></path>
      <path
        fill="#111827"
        d="M693.678 226.083c-.475.594-1.029 1.149-1.584 1.664-.554.515-1.425-.317-.831-.832.554-.515 1.109-1.07 1.584-1.665.198-.238.633-.198.831 0 .238.238.198.595 0 .833zM676.535 214.194c2.375 1.982.95 6.301-.95 8.124-2.376 2.298-6.295 2.971-8.592.237-.475-.594.357-1.426.832-.832 1.9 2.219 4.988 1.625 6.928-.238 1.465-1.386 2.811-4.873.951-6.419-.594-.555.237-1.387.831-.872zM679.544 161.969c1.148 3.764-1.544 8.4-5.543 8.955-3.721.555-6.453-2.061-7.404-5.468-.197-.753.951-1.07 1.149-.317.712 2.575 2.494 4.675 5.384 4.675 3.643-.039 6.335-4.121 5.305-7.528-.277-.753.871-1.07 1.109-.317z"
      ></path>
      <path
        fill="#0EA5E9"
        d="M604.122 193.787c-.237 6.301 1.228 12.482 1.505 18.743.04.753-1.148.753-1.188 0-.277-6.261-1.742-12.442-1.504-18.743.039-.753 1.227-.753 1.187 0zM593.235 201.831c-.752 2.537-1.742 4.993-2.415 7.569-.198.753-1.346.436-1.148-.317.673-2.576 1.702-5.032 2.415-7.569.198-.752 1.346-.435 1.148.317zM584.129 186.536c-3.564 5.231-8.552 9.273-12.076 14.503-.435.634-1.465.04-1.029-.594 3.563-5.231 8.552-9.272 12.075-14.503.396-.634 1.426-.04 1.03.594z"
      ></path>
      <path
        fill="#fff"
        d="M503.797 245.103a68.426 68.426 0 00-2.019-3.765c-.356-.674.633-1.268 1.029-.594a68.392 68.392 0 012.02 3.765c.356.673-.674 1.268-1.03.594zM502.61 250.729a9.784 9.784 0 00-1.861-.436c-.317-.04-.594-.238-.594-.594 0-.277.277-.634.594-.594a10.13 10.13 0 012.177.475c.713.238.396 1.387-.316 1.149zM558.276 221.605c.158-.278.277-.595.435-.872.159-.277.554-.357.832-.198.277.158.356.515.198.832-.159.277-.278.594-.436.871-.158.278-.554.357-.831.198a.633.633 0 01-.198-.831zM554.435 223.824a12.139 12.139 0 01-.238-2.378c0-.753 1.188-.753 1.188 0 0 .713.079 1.387.198 2.061.119.753-1.029 1.07-1.148.317zM536.698 245.935c-4.593-2.378-9.621-3.844-14.293-6.103-5.147-2.457-10.254-4.993-15.599-7.053-.712-.277-.396-1.427.317-1.149 5.187 1.981 10.175 4.438 15.203 6.815 4.91 2.338 10.136 3.923 14.966 6.42.673.396.079 1.426-.594 1.07zM517.378 241.18c-3.484-1.942-7.325-3.17-10.888-4.914-.673-.356-.079-1.347.594-1.03 3.563 1.783 7.403 2.972 10.888 4.914.673.396.079 1.426-.594 1.03zM375.243 129.991c-.396-1.07-.792-2.219-1.544-3.091-.475-.595.356-1.427.831-.833.871 1.07 1.346 2.339 1.821 3.647.317.673-.831.99-1.108.277zM373.185 133.874c-1.901-1.902-3.959-3.844-6.454-4.913-.712-.278-.396-1.427.317-1.15 2.732 1.15 4.909 3.131 7.008 5.191.514.595-.357 1.427-.871.872zM448.527 288.453c-10.096-16.247-22.171-31.067-34.128-45.926-.475-.595.356-1.427.832-.832 12.035 14.939 24.15 29.838 34.325 46.163.396.634-.633 1.229-1.029.595zM444.687 275.654c-1.703-2.14-3.405-4.28-4.87-6.578-.396-.634.634-1.229 1.03-.594 1.385 2.219 3.048 4.279 4.671 6.34.475.594-.356 1.426-.831.832zM260.625 249.58c-4.276-1.506-6.255-6.023-7.205-10.144-.159-.753.989-1.07 1.148-.317.831 3.685 2.534 7.925 6.374 9.312.713.238.396 1.387-.317 1.149zM254.766 250.215c-.594-.872-1.148-1.744-1.544-2.695-.277-.713.871-1.03 1.148-.317.317.872.871 1.664 1.426 2.418.475.594-.555 1.188-1.03.594zM217.55 181.425c-1.782 1.07-3.524 2.219-5.385 3.17-.673.357-1.267-.673-.594-1.03 1.861-.951 3.603-2.101 5.385-3.171.673-.396 1.267.634.594 1.031zM220.005 183.446c-1.386 1.822-2.573 3.764-4.038 5.587-.475.594-1.307-.238-.832-.832 1.346-1.704 2.495-3.606 3.841-5.35.435-.594 1.465 0 1.029.595zM206.029 138.035c.079.316.119.594.198.911.079.317-.079.673-.396.713-.277.079-.673-.079-.713-.396-.079-.317-.118-.595-.198-.912-.079-.316.08-.673.396-.713.277-.079.634.08.713.397zM220.401 127.336c.396.237.831.555 1.029.99.238.516 0 1.071-.515 1.308-1.029.476-1.821-.634-2.415-1.268a.546.546 0 01-.079-.713c.871-1.427 2.494-.278 2.969.832.119.277-.118.634-.395.713-.357.08-.594-.118-.713-.396-.079-.198-.277-.396-.475-.555-.159-.119-.238-.198-.317-.039a4.334 4.334 0 01-.079-.714c.158.159.317.357.475.555.079.119.198.198.317.317.079.079.198.119.277.198 0-.039-.04.278-.04.278s0-.04-.039-.08c-.198-.118-.317-.317-.555-.436-.712-.356-.118-1.387.555-.99zM223.648 134.427c-.753 0-.753-1.187 0-1.187.752 0 .752 1.187 0 1.187zM210.82 135.697c.633-.119 1.306 0 1.781.515a.546.546 0 01.08.713c-.515.911-1.861.99-2.336 0a.633.633 0 01.198-.832 2.262 2.262 0 011.346-.317c.316.04.594.238.594.594 0 .277-.278.634-.594.594-.277-.039-.515 0-.752.159.079-.277.158-.555.197-.832 0 0 .08.119.04.119.079.079-.04-.04 0 0 .079.079 0 0 .04.039.039 0-.08.04.039 0 .079 0 .04 0 0 0 .119-.039-.039.04.04 0 .039-.039 0 .04.039-.039l.04-.079c.04.237.079.475.079.713-.158-.198-.356-.238-.594-.198-.316.039-.633-.08-.712-.397-.04-.277.158-.673.475-.752zM268.03 137.005c1.702-.911 3.127-2.14 4.553-3.408.554-.516 1.425.317.831.832-1.504 1.347-3.009 2.655-4.79 3.607-.673.356-1.267-.674-.594-1.031zM266.644 133.438c1.029-1.862 1.386-4.002 1.979-6.023.238-.713 1.386-.436 1.149.317-.634 2.14-1.03 4.319-2.099 6.3-.396.674-1.425.04-1.029-.594zM319.657 396.512c-1.623 3.526-3.484 6.894-5.661 10.104-.436.634-1.465.04-1.03-.594 2.178-3.21 4.039-6.578 5.662-10.105.356-.713 1.346-.119 1.029.595zM319.736 402.218c-.316 1.03-.831 1.981-1.267 2.972-.316.674-1.346.079-1.029-.594.396-.872.871-1.744 1.148-2.695.238-.714 1.386-.397 1.148.317zM355.962 388.865c-.396-1.031-.989-1.942-1.544-2.894-.396-.673.634-1.268 1.03-.594.633 1.03 1.227 2.061 1.662 3.171.278.713-.871 1.03-1.148.317zM355.091 390.964c-.871-.673-1.583-1.506-2.494-2.14-.633-.436-.04-1.466.594-1.03.99.674 1.821 1.585 2.732 2.299.633.515-.238 1.347-.832.871zM431.978 404.001c-.396.595-.792 1.229-1.228 1.823-.435.634-1.464.04-1.029-.594.396-.595.792-1.229 1.227-1.823.436-.674 1.465-.08 1.03.594zM446.112 421.991c-2.771-1.625-5.543-3.21-7.8-5.548-.514-.554.317-1.387.832-.832 2.177 2.259 4.87 3.804 7.562 5.35.673.396.079 1.426-.594 1.03zM176.019 186.101c.475-.793.791-1.586.91-2.497.119-.753 1.267-.436 1.148.317a7.555 7.555 0 01-1.029 2.774c-.396.674-1.425.04-1.029-.594zM172.653 185.427a3.806 3.806 0 00-.316-1.15c-.119-.317.119-.634.396-.713a.599.599 0 01.712.396c.198.476.277.952.357 1.467.039.317-.317.594-.594.594-.317 0-.515-.277-.555-.594zM136.704 6.993c-.633 27.817-10.967 54.644-25.378 78.102-.396.674-1.346.08-1.029-.594 5.503-11.571 9.066-23.42 10.254-36.179.95-10.223 1.663-20.645.396-30.868-.713-5.745-2.059-11.53-5.028-16.563-.396-.674.633-1.268 1.029-.595 5.305 8.995 5.939 20.249 5.82 30.393-.119 11.174-.871 22.824-3.682 33.682-1.861 7.172-4.593 14.067-7.76 20.724-.356-.198-.673-.396-1.029-.594 14.332-23.3 24.586-49.929 25.219-77.508.04-.753 1.228-.753 1.188 0zM45.208 124.086c-2.93 9.233-9.066 16.485-17.301 21.477-8.354 5.072-17.856 7.807-27.16 10.422-.752.198-1.07-.951-.317-1.149 8.908-2.497 17.935-5.112 25.972-9.788 8.354-4.834 14.689-12.006 17.618-21.279.277-.753 1.426-.436 1.188.317zM78.822 200.92c-6.77-5.785-13.105-12.165-20.865-16.682-.673-.396-.08-1.426.594-1.03 7.839 4.596 14.253 11.016 21.102 16.88.594.515-.237 1.347-.831.832zM647.396 94.605c-.673-8.955-6.573-17.277-12.115-23.973-5.622-6.776-12.115-13.156-19.479-17.99.277-.238.593-.436.871-.674.712 4.517 4.236 8.4 7.126 11.73 2.93 3.367 6.058 6.537 8.552 10.262 7.087 10.342 13.223 21.358 18.093 32.889a143.986 143.986 0 016.85 20.17c.198.753-.951 1.07-1.149.317-3.207-12.522-8.235-24.528-14.411-35.861a194.786 194.786 0 00-9.779-16.049c-2.653-3.923-5.86-7.29-8.987-10.897-3.009-3.487-6.691-7.528-7.444-12.244-.079-.475.396-.99.871-.674 7.76 5.073 14.649 11.848 20.469 19.06 5.464 6.776 11.086 14.979 11.759 23.934.04.753-1.148.753-1.227 0zM647.395 405.229c-1.148.635-2.336 1.15-3.325 1.982-.594.476-1.426-.357-.832-.832 1.069-.912 2.336-1.506 3.563-2.18.674-.357 1.267.674.594 1.03zM645.099 404.08c-.594.396-1.187.793-1.702 1.268-.554.516-1.425-.317-.832-.832.594-.555 1.267-1.03 1.94-1.466.634-.397 1.228.634.594 1.03zM626.887 331.01c-.752 0-.752-1.188 0-1.188s.752 1.188 0 1.188zM664.817 361.403c-.753 0-.753-1.188 0-1.188.752 0 .752 1.188 0 1.188zM620.433 389.219c-.752 0-.752-1.187 0-1.187.792 0 .792 1.187 0 1.187zM576.765 401.186c-.753 0-.753-1.187 0-1.187.791 0 .791 1.187 0 1.187zM585.237 356.49c-.594-1.109-1.109-2.219-1.822-3.21-.435-.634.594-1.228 1.03-.594.752.99 1.267 2.14 1.821 3.21.356.674-.673 1.268-1.029.594zM583.376 358.114c-.91-1.783-1.781-3.566-2.771-5.27-.396-.673.633-1.268 1.029-.594.99 1.743 1.861 3.527 2.772 5.27.356.674-.673 1.268-1.03.594zM179.067 461.854c-2.969 7.132-4.157 14.82-6.097 22.23-.198.753-1.346.436-1.148-.317 1.94-7.45 3.128-15.098 6.097-22.23.317-.713 1.465-.396 1.148.317zM191.301 467.401c-2.336 9.312-2.613 18.941-4.434 28.372-.158.753-1.306.436-1.148-.317 1.821-9.391 2.098-19.06 4.434-28.372.198-.753 1.346-.436 1.148.317zM463.296 453.85c1.465 13.591 3.484 27.183 3.207 40.893 0 .753-1.188.753-1.188 0 .277-13.71-1.742-27.302-3.207-40.893-.079-.753 1.108-.753 1.188 0zM455.812 465.222c.119 7.648-2.217 15.375-.396 22.943.198.753-.95 1.07-1.148.317-1.861-7.687.475-15.494.317-23.26.039-.753 1.227-.753 1.227 0zM448.369 470.571v13.156c0 .753-1.188.753-1.188 0v-13.156c0-.753 1.188-.792 1.188 0zM626.689 461.854c4.078 9.946 9.621 19.496 11.363 30.234.119.753-1.029 1.07-1.148.317-1.742-10.738-7.285-20.288-11.363-30.234-.277-.673.871-.99 1.148-.317zM624.948 473.266c.791 2.219 1.544 4.478 2.138 6.776.198.753-.951 1.07-1.149.317a70.262 70.262 0 00-2.138-6.776c-.277-.753.871-1.03 1.149-.317zM619.246 472.196c.871 5.231 1.979 10.461 2.138 15.811.039.753-1.148.753-1.188 0-.158-5.231-1.267-10.343-2.098-15.494-.119-.753 1.029-1.07 1.148-.317zM692.808 458.684c2.217 6.023 4.395 12.046 6.414 18.148.237.714-.911 1.03-1.148.317a496.342 496.342 0 00-6.414-18.148c-.277-.713.871-1.03 1.148-.317zM294.397 451.393c.159 13.988-.752 27.975-2.415 41.844-.079.753-1.267.753-1.188 0 1.663-13.869 2.574-27.856 2.416-41.844 0-.753 1.187-.753 1.187 0zM284.341 471.127c-.198 5.904-1.03 11.808-1.188 17.712-.04.753-1.227.753-1.188 0 .198-5.904 1.03-11.808 1.188-17.712.04-.793 1.227-.793 1.188 0zM198.071 439.03c-.396 1.149-.277 2.378-.594 3.527-.197.753-1.346.436-1.148-.317.317-1.149.159-2.378.594-3.527.238-.714 1.386-.436 1.148.317zM219.016 438.713c.554.832.91 1.743 1.504 2.536.475.594-.356 1.427-.831.832-.673-.832-1.109-1.862-1.703-2.774-.396-.634.634-1.229 1.03-.594zM246.73 435.543c-.515 0-1.03-.079-1.544-.158-.436-.08-.871-.476-1.069-.833a1.89 1.89 0 01-.198-1.387c.158-.436.396-.832.831-1.07.436-.238.871-.277 1.386-.198.119.04.237.04.317.04-.159-.04-.317-.04-.476-.08.238.04.515.04.753.04.475 0 .95.198 1.267.515.316.317.554.833.514 1.269-.039 1.03-.792 1.862-1.781 1.862zM259.002 435.543c-.792 0-1.583-.039-2.375-.119-.911-.079-1.821-.753-1.782-1.783.04-.872.792-1.863 1.782-1.784.792.08 1.583.119 2.375.119.95 0 1.821.833 1.782 1.784-.04.991-.792 1.783-1.782 1.783z"
      ></path>
      <path
        fill="#111827"
        d="M201.001 428.846h-4.196c-2.297 0-2.297-3.567 0-3.567h4.196c2.297 0 2.297 3.567 0 3.567zM339.572 430.986c-3.365 0-6.731-.158-10.096-.277-2.296-.079-2.296-3.646 0-3.567 3.365.119 6.731.277 10.096.277 2.257 0 2.296 3.567 0 3.567zM684.691 447.352c-2.138-.515-4.434-.119-6.651-.119-2.296.039-2.296-3.527 0-3.567 2.534-.04 5.068-.396 7.562.238 2.257.555 1.346 4.003-.911 3.448zM509.736 444.855h-7.602c-2.296 0-2.296-3.567 0-3.567h7.602c2.296 0 2.296 3.567 0 3.567z"
      ></path>
      <path
        fill="#fff"
        d="M473.787 111.763v.08c-.04-.159-.04-.317-.08-.476v.04c-.079-.159-.118-.278-.198-.436v.039c-.079-.118-.197-.237-.277-.356l.04.039c-.119-.079-.238-.198-.356-.277h.039c-.158-.079-.277-.119-.435-.198h.039c-.158-.04-.316-.04-.475-.079h.079c.951-.04 1.822.871 1.782 1.783a1.827 1.827 0 01-1.782 1.783c-1.108.04-2.058-.911-1.979-1.981.039-.476.198-.912.514-1.268.317-.317.832-.555 1.267-.516.476.04.951.159 1.267.516.357.356.594.832.555 1.307zM485.506 73.682c-.753 0-.753-1.188 0-1.188.792 0 .792 1.188 0 1.188zM485.506 79.27c-.753 0-.753-1.188 0-1.188.792 0 .792 1.187 0 1.187zM489.188 51.57c-.752 0-.752-1.187 0-1.187s.752 1.188 0 1.188zM495.84 56.286c-.752 0-.752-1.188 0-1.188s.752 1.188 0 1.188zM522.207 43.606c-.752 0-.752-1.188 0-1.188.792 0 .792 1.188 0 1.188zM549.487 90.641c-.753 0-.753-1.187 0-1.187.752 0 .752 1.187 0 1.187zM553.564 86.798c-.752 0-.752-1.188 0-1.188s.752 1.188 0 1.188zM515.358 107.205c-.753 0-.753-1.188 0-1.188.752 0 .752 1.188 0 1.188zM480.596 131.258c-.752 0-.752-1.188 0-1.188s.752 1.188 0 1.188zM481.428 134.903c-.753 0-.753-1.188 0-1.188.791 0 .791 1.188 0 1.188zM458.9 116.2c-.752 0-.752-1.188 0-1.188.792 0 .792 1.188 0 1.188zM448.725 92.505c.277 3.447.356 6.895 1.346 10.223.198.753-.91 1.031-1.148.317-1.029-3.447-1.069-7.013-1.386-10.54-.039-.792 1.148-.792 1.188 0zM501.184 21.735a52.212 52.212 0 00-.237-3.528c-.079-.753 1.108-.753 1.188 0 .118 1.19.237 2.339.237 3.528 0 .753-1.188.753-1.188 0zM496.909 23.12c-.555-1.822-1.307-3.566-2.02-5.31-.277-.712.871-1.03 1.149-.316.712 1.743 1.464 3.487 2.019 5.31.237.753-.911 1.07-1.148.317zM446.112 47.728c-.91 1.545-1.782 3.13-2.534 4.795-.316.713-1.346.08-1.029-.595.713-1.664 1.584-3.249 2.534-4.794.396-.674 1.425-.04 1.029.594zM442.905 48.6c-.593 1.506-1.425 2.933-2.058 4.439-.317.713-1.346.08-1.03-.595.634-1.387 1.386-2.734 1.94-4.161.277-.713 1.426-.396 1.148.317zM565.204 62.23c-.832-2.852-1.109-5.864-2.693-8.44-.396-.633.634-1.228 1.03-.594 1.663 2.655 1.979 5.786 2.85 8.718.159.713-.989 1.03-1.187.317zM561.997 60.33c-.436-.674-.832-1.348-1.267-2.022-.396-.634.633-1.229 1.029-.594.436.673.832 1.347 1.267 2.02.396.674-.633 1.269-1.029.595zM634.208 246.114a2.89 2.89 0 115.627-1.325 2.891 2.891 0 11-5.627 1.325zM661.213 97.458c0 .912.713 1.625 1.624 1.625.91 0 1.623-.713 1.623-1.625 0-.911-.713-1.624-1.623-1.624-.871 0-1.624.713-1.624 1.624zM667.152 105.146a2.4 2.4 0 002.415 2.418 2.4 2.4 0 002.415-2.418 2.4 2.4 0 00-2.415-2.417 2.4 2.4 0 00-2.415 2.417zM671.863 94.922c0 .515.396.911.911.911a.896.896 0 00.911-.911.896.896 0 00-.911-.911c-.515-.04-.911.396-.911.911zM701.409 189.813a3.128 3.128 0 116.087-1.443 3.128 3.128 0 11-6.087 1.443zM699.103 172.153c0 .792.633 1.387 1.385 1.387.792 0 1.386-.634 1.386-1.387s-.633-1.388-1.386-1.388c-.752-.039-1.385.595-1.385 1.388zM436.65 11.391a3.446 3.446 0 01-3.444-3.447 3.446 3.446 0 013.444-3.447 3.446 3.446 0 013.445 3.447 3.446 3.446 0 01-3.445 3.447zM29.688 389.657a3.446 3.446 0 01-3.444-3.448 3.446 3.446 0 116.889 0 3.446 3.446 0 01-3.445 3.448zM414.32 16.108a2.139 2.139 0 01-2.138-2.14 2.139 2.139 0 112.138 2.14zM27.59 364.138c0 1.189.95 2.14 2.138 2.14a2.13 2.13 0 002.138-2.14 2.13 2.13 0 00-2.138-2.14 2.13 2.13 0 00-2.138 2.14zM28.302 286.471c-1.584-1.743-3.682-2.932-5.265-4.675-.515-.555.316-1.427.83-.833 1.585 1.744 3.683 2.933 5.267 4.676.554.555-.317 1.387-.832.832zM28.263 291.583c-2.573.713-5.226-.04-7.76.634-.752.198-1.069-.951-.316-1.149 2.573-.674 5.226.079 7.76-.634.752-.198 1.069.951.316 1.149zM596.284 254.612c-.99 1.982-1.822 4.24-4.158 4.954-.752.237-1.029-.912-.316-1.15 1.94-.594 2.613-2.734 3.444-4.398.356-.674 1.386-.079 1.03.594zM699.617 364.811c-2.93 5.032-6.691 9.47-9.74 14.423-.395.634-1.425.04-1.029-.594 3.049-4.914 6.81-9.391 9.74-14.424.396-.634 1.425-.039 1.029.595zM697.519 379.235c-1.425 2.496-3.088 4.834-4.157 7.489-.277.713-1.426.396-1.148-.317 1.108-2.774 2.811-5.191 4.276-7.766.356-.674 1.385-.08 1.029.594zM675.665 260.675c-2.455.912-4.791.08-7.048-.95-.673-.317-.079-1.347.594-1.03 1.98.911 3.999 1.664 6.137.832.713-.278 1.029.871.317 1.148zM672.576 264.083c-1.187.079-2.375 0-3.484-.555-.673-.317-.079-1.347.594-1.03.911.436 1.901.436 2.89.357.753 0 .753 1.188 0 1.228zM709.951 237.336c0-2.734 0-5.468-.238-8.202-.079-.753 1.109-.753 1.188 0 .238 2.734.238 5.468.238 8.202 0 .753-1.188.753-1.188 0zM359.486 252.591c-.752 0-.752-1.188 0-1.188.792 0 .792 1.188 0 1.188zM326.348 307.314c-.753 0-.753-1.188 0-1.188.791 0 .791 1.188 0 1.188zM376.074 306.204c-.752 0-.752-1.188 0-1.188.753 0 .753 1.188 0 1.188zM415.27 299.032c-.752 0-.752-1.188 0-1.188.753 0 .792 1.188 0 1.188zM394.287 247.637c-.752 0-.752-1.187 0-1.187.753 0 .753 1.187 0 1.187zM268.386 271.413c-.752 0-.752-1.188 0-1.188s.752 1.188 0 1.188zM324.17 259.802c-.752 0-.752-1.187 0-1.187s.752 1.187 0 1.187zM330.782 205.635c-.752 0-.752-1.188 0-1.188.753 0 .753 1.188 0 1.188zM288.261 229.37c-.752 0-.752-1.188 0-1.188s.752 1.188 0 1.188zM267.278 212.807c-.753 0-.753-1.188 0-1.188.752 0 .752 1.188 0 1.188zM257.894 368.693c-.752 0-.752-1.188 0-1.188s.752 1.188 0 1.188zM231.922 385.811c-.752 0-.752-1.187 0-1.187s.752 1.187 0 1.187zM154.599 322.252c-.752 0-.752-1.188 0-1.188.792 0 .792 1.188 0 1.188zM149.096 367.03c-.752 0-.752-1.188 0-1.188s.752 1.188 0 1.188zM450.112 341.114c-.753 0-.753-1.188 0-1.188.752 0 .752 1.188 0 1.188z"
      ></path>
    </svg>